<svg data-v-423bf9ae="" xmlns="http://www.w3.org/2000/svg" viewBox="0 0 607.811157744286 204" class="iconAboveSlogan"><!----><!----><!----><g data-v-423bf9ae="" id="994e28bc-d9e9-4cd8-b255-87c68c03c49e" fill="black" transform="matrix(4.291845634095209,0,0,4.291845634095209,-2.588617462606635e-7,89.7811157744286)"><path d="M0 6.47L0 6.47L0 6.47Q0 5.67 0.44 5.11L0.44 5.11L0.44 5.11Q0.88 4.55 1.65 4.19L1.65 4.19L1.65 4.19Q2.41 3.83 3.43 3.66L3.43 3.66L3.43 3.66Q4.45 3.50 5.61 3.50L5.61 3.50L5.61 3.50Q6.17 3.50 6.69 3.51L6.69 3.51L6.69 3.51Q7.22 3.52 7.65 3.54L7.65 3.54L7.65 3.54Q8.09 3.56 8.40 3.59L8.40 3.59L8.40 3.59Q8.72 3.62 8.86 3.65L8.86 3.65L8.86 3.65Q9.00 3.68 9.08 3.73L9.08 3.73L9.08 3.73Q9.16 3.77 9.20 3.82L9.20 3.82L9.20 3.82Q9.24 3.88 9.26 3.95L9.26 3.95L9.26 3.95Q9.27 4.02 9.27 4.12L9.27 4.12L9.27 4.12Q9.27 4.20 9.25 4.30L9.25 4.30L9.25 4.30Q9.23 4.40 9.19 4.48L9.19 4.48L9.19 4.48Q9.15 4.57 9.08 4.63L9.08 4.63L9.08 4.63Q9.02 4.69 8.93 4.69L8.93 4.69L8.93 4.69Q8.88 4.69 8.81 4.64L8.81 4.64L8.81 4.64Q8.75 4.59 8.63 4.52L8.63 4.52L8.63 4.52Q8.51 4.44 8.31 4.36L8.31 4.36L8.31 4.36Q8.11 4.28 7.77 4.20L7.77 4.20L7.77 4.20Q7.43 4.13 6.93 4.08L6.93 4.08L6.93 4.08Q6.43 4.03 5.71 4.03L5.71 4.03L5.71 8.42L8.55 8.42L8.55 9.02L5.71 9.02L5.71 11.69L5.71 11.69Q5.71 12.01 5.81 12.24L5.81 12.24L5.81 12.24Q5.91 12.47 6.08 12.62L6.08 12.62L6.08 12.62Q6.26 12.77 6.51 12.84L6.51 12.84L6.51 12.84Q6.76 12.91 7.07 12.91L7.07 12.91L7.07 12.91Q7.42 12.91 7.77 12.83L7.77 12.83L7.77 12.83Q8.11 12.76 8.43 12.65L8.43 12.65L8.43 12.65Q8.74 12.54 8.99 12.41L8.99 12.41L8.99 12.41Q9.25 12.27 9.41 12.14L9.41 12.14L9.67 12.43L9.67 12.43Q9.50 12.57 9.21 12.81L9.21 12.81L9.21 12.81Q8.93 13.04 8.51 13.27L8.51 13.27L8.51 13.27Q8.10 13.49 7.55 13.66L7.55 13.66L7.55 13.66Q7 13.83 6.30 13.83L6.30 13.83L6.30 13.83Q6.07 13.83 5.77 13.81L5.77 13.81L5.77 13.81Q5.48 13.78 5.16 13.71L5.16 13.71L5.16 13.71Q4.85 13.64 4.54 13.50L4.54 13.50L4.54 13.50Q4.24 13.36 4.00 13.13L4.00 13.13L4.00 13.13Q3.77 12.89 3.62 12.55L3.62 12.55L3.62 12.55Q3.47 12.22 3.47 11.74L3.47 11.74L3.47 9.02L2.41 9.02L2.41 8.42L3.47 8.42L3.47 4.12L3.47 4.12Q3.25 4.14 2.97 4.19L2.97 4.19L2.97 4.19Q2.69 4.25 2.39 4.36L2.39 4.36L2.39 4.36Q2.09 4.46 1.80 4.61L1.80 4.61L1.80 4.61Q1.52 4.75 1.29 4.94L1.29 4.94L1.29 4.94Q1.07 5.13 0.93 5.37L0.93 5.37L0.93 5.37Q0.79 5.61 0.79 5.88L0.79 5.88L0.79 5.88Q0.79 6.10 0.84 6.23L0.84 6.23L0.84 6.23Q0.90 6.36 0.98 6.42L0.98 6.42L0.98 6.42Q1.05 6.49 1.13 6.50L1.13 6.50L1.13 6.50Q1.21 6.52 1.24 6.52L1.24 6.52L1.24 6.52Q1.42 6.52 1.52 6.46L1.52 6.46L1.52 6.46Q1.63 6.41 1.72 6.34L1.72 6.34L1.72 6.34Q1.81 6.28 1.89 6.22L1.89 6.22L1.89 6.22Q1.97 6.16 2.07 6.16L2.07 6.16L2.07 6.16Q2.15 6.16 2.25 6.20L2.25 6.20L2.25 6.20Q2.34 6.23 2.42 6.32L2.42 6.32L2.42 6.32Q2.50 6.40 2.55 6.53L2.55 6.53L2.55 6.53Q2.60 6.67 2.60 6.86L2.60 6.86L2.60 6.86Q2.60 7.13 2.50 7.33L2.50 7.33L2.50 7.33Q2.39 7.53 2.23 7.66L2.23 7.66L2.23 7.66Q2.06 7.79 1.84 7.86L1.84 7.86L1.84 7.86Q1.63 7.92 1.42 7.92L1.42 7.92L1.42 7.92Q1.09 7.92 0.82 7.81L0.82 7.81L0.82 7.81Q0.56 7.70 0.38 7.50L0.38 7.50L0.38 7.50Q0.19 7.30 0.10 7.04L0.10 7.04L0.10 7.04Q0 6.77 0 6.47ZM14.55 10.32L14.55 10.32L14.55 10.32Q14.55 9.45 14.47 8.94L14.47 8.94L14.47 8.94Q14.39 8.42 14.26 8.15L14.26 8.15L14.26 8.15Q14.13 7.88 13.97 7.80L13.97 7.80L13.97 7.80Q13.82 7.71 13.65 7.71L13.65 7.71L13.65 7.71Q13.45 7.71 13.30 7.82L13.30 7.82L13.30 7.82Q13.15 7.92 13.03 8.06L13.03 8.06L13.03 8.06Q12.92 8.20 12.84 8.33L12.84 8.33L12.84 8.33Q12.76 8.47 12.71 8.54L12.71 8.54L12.71 13.10L12.71 13.10Q12.71 13.19 12.68 13.32L12.68 13.32L12.68 13.32Q12.65 13.45 12.55 13.56L12.55 13.56L12.55 13.56Q12.44 13.67 12.23 13.75L12.23 13.75L12.23 13.75Q12.02 13.83 11.66 13.83L11.66 13.83L11.66 13.83Q11.30 13.83 11.09 13.74L11.09 13.74L11.09 13.74Q10.88 13.66 10.77 13.54L10.77 13.54L10.77 13.54Q10.66 13.43 10.64 13.30L10.64 13.30L10.64 13.30Q10.61 13.18 10.61 13.10L10.61 13.10L10.61 7.83L10.61 7.83Q10.61 7.63 10.52 7.48L10.52 7.48L10.52 7.48Q10.42 7.33 10.21 7.33L10.21 7.33L10.21 7.33Q10.09 7.33 10.01 7.38L10.01 7.38L10.01 7.38Q9.93 7.42 9.83 7.49L9.83 7.49L9.69 7.32L9.69 7.32Q9.84 7.19 10.04 7.06L10.04 7.06L10.04 7.06Q10.23 6.94 10.46 6.84L10.46 6.84L10.46 6.84Q10.68 6.75 10.94 6.69L10.94 6.69L10.94 6.69Q11.20 6.62 11.49 6.62L11.49 6.62L11.49 6.62Q11.94 6.62 12.18 6.77L12.18 6.77L12.18 6.77Q12.43 6.92 12.54 7.12L12.54 7.12L12.54 7.12Q12.66 7.33 12.68 7.55L12.68 7.55L12.68 7.55Q12.71 7.77 12.71 7.92L12.71 7.92L12.71 7.92Q12.96 7.56 13.28 7.27L13.28 7.27L13.28 7.27Q13.41 7.15 13.57 7.03L13.57 7.03L13.57 7.03Q13.73 6.92 13.91 6.83L13.91 6.83L13.91 6.83Q14.10 6.73 14.30 6.68L14.30 6.68L14.30 6.68Q14.50 6.62 14.71 6.62L14.71 6.62L14.71 6.62Q15.18 6.62 15.53 6.80L15.53 6.80L15.53 6.80Q15.89 6.98 16.14 7.40L16.14 7.40L16.14 7.40Q16.39 7.81 16.52 8.50L16.52 8.50L16.52 8.50Q16.65 9.19 16.65 10.21L16.65 10.21L16.65 10.21Q16.65 11.20 16.47 11.93L16.47 11.93L16.47 11.93Q16.29 12.66 16.00 13.17L16.00 13.17L16.00 13.17Q15.72 13.69 15.35 14.01L15.35 14.01L15.35 14.01Q14.99 14.33 14.62 14.52L14.62 14.52L14.62 14.52Q14.25 14.70 13.91 14.78L13.91 14.78L13.91 14.78Q13.58 14.85 13.33 14.85L13.33 14.85L13.25 14.57L13.25 14.57Q13.46 14.53 13.63 14.42L13.63 14.42L13.63 14.42Q13.81 14.32 13.95 14.12L13.95 14.12L13.95 14.12Q14.10 13.92 14.21 13.62L14.21 13.62L14.21 13.62Q14.31 13.32 14.39 12.86L14.39 12.86L14.39 12.86Q14.47 12.40 14.51 11.77L14.51 11.77L14.51 11.77Q14.55 11.15 14.55 10.32ZM17.77 9.42L17.77 9.42L17.77 9.42Q17.77 8.72 18.01 8.20L18.01 8.20L18.01 8.20Q18.25 7.68 18.66 7.32L18.66 7.32L18.66 7.32Q19.07 6.97 19.61 6.80L19.61 6.80L19.61 6.80Q20.15 6.62 20.75 6.62L20.75 6.62L20.75 6.62Q21.34 6.62 21.88 6.78L21.88 6.78L21.88 6.78Q22.41 6.94 22.82 7.27L22.82 7.27L22.82 7.27Q22.95 7.07 23.03 6.85L23.03 6.85L23.03 6.85Q23.11 6.63 23.11 6.41L23.11 6.41L23.11 6.41Q23.11 6.13 22.96 5.95L22.96 5.95L22.96 5.95Q22.80 5.78 22.57 5.78L22.57 5.78L22.57 5.58L22.57 5.58Q22.72 5.54 22.83 5.50L22.83 5.50L22.83 5.50Q22.95 5.46 23.04 5.44L23.04 5.44L23.04 5.44Q23.14 5.42 23.24 5.41L23.24 5.41L23.24 5.41Q23.33 5.40 23.45 5.40L23.45 5.40L23.45 5.40Q23.77 5.40 23.94 5.60L23.94 5.60L23.94 5.60Q24.11 5.80 24.11 6.15L24.11 6.15L24.11 6.15Q24.11 6.35 24.01 6.55L24.01 6.55L24.01 6.55Q23.92 6.75 23.78 6.94L23.78 6.94L23.78 6.94Q23.63 7.12 23.46 7.29L23.46 7.29L23.46 7.29Q23.28 7.45 23.13 7.57L23.13 7.57L23.13 7.57Q23.41 7.90 23.57 8.34L23.57 8.34L23.57 8.34Q23.73 8.78 23.73 9.34L23.73 9.34L23.73 9.34Q23.73 10.04 23.48 10.58L23.48 10.58L23.48 10.58Q23.24 11.12 22.83 11.49L22.83 11.49L22.83 11.49Q22.42 11.86 21.88 12.05L21.88 12.05L21.88 12.05Q21.34 12.24 20.75 12.24L20.75 12.24L20.75 12.24Q20.40 12.24 20.06 12.17L20.06 12.17L20.06 12.17Q19.73 12.11 19.43 12.00L19.43 12.00L19.43 12.00Q19.33 12.08 19.25 12.20L19.25 12.20L19.25 12.20Q19.17 12.33 19.17 12.48L19.17 12.48L19.17 12.48Q19.17 12.73 19.39 12.85L19.39 12.85L19.39 12.85Q19.61 12.97 19.97 13.03L19.97 13.03L19.97 13.03Q20.33 13.08 20.79 13.10L20.79 13.10L20.79 13.10Q21.25 13.11 21.73 13.14L21.73 13.14L21.73 13.14Q22.21 13.17 22.67 13.26L22.67 13.26L22.67 13.26Q23.13 13.34 23.49 13.54L23.49 13.54L23.49 13.54Q23.85 13.73 24.07 14.07L24.07 14.07L24.07 14.07Q24.29 14.40 24.29 14.94L24.29 14.94L24.29 14.94Q24.29 15.33 24.12 15.64L24.12 15.64L24.12 15.64Q23.96 15.95 23.68 16.18L23.68 16.18L23.68 16.18Q23.41 16.42 23.04 16.59L23.04 16.59L23.04 16.59Q22.67 16.75 22.27 16.86L22.27 16.86L22.27 16.86Q21.86 16.97 21.44 17.01L21.44 17.01L21.44 17.01Q21.02 17.06 20.64 17.06L20.64 17.06L20.64 17.06Q19.94 17.06 19.38 16.99L19.38 16.99L19.38 16.99Q18.83 16.92 18.44 16.77L18.44 16.77L18.44 16.77Q18.05 16.62 17.83 16.38L17.83 16.38L17.83 16.38Q17.62 16.14 17.62 15.80L17.62 15.80L17.62 15.80Q17.62 15.57 17.73 15.36L17.73 15.36L17.73 15.36Q17.84 15.16 18.02 14.99L18.02 14.99L18.02 14.99Q18.20 14.83 18.43 14.69L18.43 14.69L18.43 14.69Q18.66 14.56 18.89 14.44L18.89 14.44L18.89 14.44Q18.55 14.30 18.32 14.01L18.32 14.01L18.32 14.01Q18.09 13.72 18.09 13.24L18.09 13.24L18.09 13.24Q18.09 12.99 18.18 12.77L18.18 12.77L18.18 12.77Q18.27 12.56 18.41 12.38L18.41 12.38L18.41 12.38Q18.55 12.20 18.71 12.05L18.71 12.05L18.71 12.05Q18.88 11.90 19.04 11.80L19.04 11.80L19.04 11.80Q18.76 11.63 18.52 11.40L18.52 11.40L18.52 11.40Q18.29 11.16 18.12 10.87L18.12 10.87L18.12 10.87Q17.95 10.57 17.86 10.21L17.86 10.21L17.86 10.21Q17.77 9.84 17.77 9.42ZM21.67 9.37L21.67 9.37L21.67 9.37Q21.67 8.97 21.63 8.59L21.63 8.59L21.63 8.59Q21.59 8.22 21.49 7.92L21.49 7.92L21.49 7.92Q21.38 7.63 21.21 7.45L21.21 7.45L21.21 7.45Q21.03 7.27 20.75 7.27L20.75 7.27L20.75 7.27Q20.47 7.27 20.29 7.45L20.29 7.45L20.29 7.45Q20.11 7.64 20.01 7.95L20.01 7.95L20.01 7.95Q19.91 8.25 19.87 8.64L19.87 8.64L19.87 8.64Q19.82 9.02 19.82 9.42L19.82 9.42L19.82 9.42Q19.82 9.82 19.87 10.21L19.87 10.21L19.87 10.21Q19.91 10.60 20.01 10.91L20.01 10.91L20.01 10.91Q20.11 11.22 20.29 11.41L20.29 11.41L20.29 11.41Q20.47 11.59 20.75 11.59L20.75 11.59L20.75 11.59Q21.03 11.59 21.21 11.40L21.21 11.40L21.21 11.40Q21.38 11.20 21.49 10.88L21.49 10.88L21.49 10.88Q21.59 10.56 21.63 10.17L21.63 10.17L21.63 10.17Q21.67 9.77 21.67 9.37ZM22.71 15.48L22.71 15.48L22.71 15.48Q22.71 15.26 22.54 15.12L22.54 15.12L22.54 15.12Q22.37 14.98 22.09 14.90L22.09 14.90L22.09 14.90Q21.81 14.81 21.46 14.77L21.46 14.77L21.46 14.77Q21.11 14.72 20.75 14.70L20.75 14.70L20.75 14.70Q20.38 14.68 20.04 14.66L20.04 14.66L20.04 14.66Q19.70 14.64 19.45 14.60L19.45 14.60L19.45 14.60Q19.30 14.70 19.17 14.82L19.17 14.82L19.17 14.82Q19.04 14.94 18.94 15.08L18.94 15.08L18.94 15.08Q18.84 15.21 18.78 15.36L18.78 15.36L18.78 15.36Q18.72 15.50 18.72 15.65L18.72 15.65L18.72 15.65Q18.72 15.91 18.87 16.09L18.87 16.09L18.87 16.09Q19.02 16.26 19.27 16.37L19.27 16.37L19.27 16.37Q19.53 16.47 19.87 16.51L19.87 16.51L19.87 16.51Q20.21 16.55 20.58 16.55L20.58 16.55L20.58 16.55Q21.08 16.55 21.48 16.46L21.48 16.46L21.48 16.46Q21.88 16.38 22.15 16.23L22.15 16.23L22.15 16.23Q22.42 16.08 22.57 15.89L22.57 15.89L22.57 15.89Q22.71 15.70 22.71 15.48ZM27.31 4.21L27.31 13.12L27.31 13.12Q27.31 13.21 27.28 13.33L27.28 13.33L27.28 13.33Q27.25 13.45 27.14 13.56L27.14 13.56L27.14 13.56Q27.02 13.67 26.81 13.75L26.81 13.75L26.81 13.75Q26.59 13.83 26.23 13.83L26.23 13.83L26.23 13.83Q25.87 13.83 25.66 13.74L25.66 13.74L25.66 13.74Q25.46 13.66 25.36 13.54L25.36 13.54L25.36 13.54Q25.26 13.43 25.23 13.30L25.23 13.30L25.23 13.30Q25.21 13.18 25.21 13.10L25.21 13.10L25.21 4.29L25.21 4.29Q25.21 4.09 25.12 3.94L25.12 3.94L25.12 3.94Q25.03 3.79 24.81 3.79L24.81 3.79L24.81 3.79Q24.69 3.79 24.61 3.83L24.61 3.83L24.61 3.83Q24.52 3.87 24.42 3.94L24.42 3.94L24.29 3.78L24.29 3.78Q24.45 3.65 24.64 3.52L24.64 3.52L24.64 3.52Q24.83 3.40 25.06 3.30L25.06 3.30L25.06 3.30Q25.29 3.21 25.55 3.14L25.55 3.14L25.55 3.14Q25.81 3.08 26.09 3.08L26.09 3.08L26.09 3.08Q26.54 3.08 26.78 3.20L26.78 3.20L26.78 3.20Q27.03 3.32 27.15 3.50L27.15 3.50L27.15 3.50Q27.26 3.67 27.29 3.87L27.29 3.87L27.29 3.87Q27.31 4.06 27.31 4.21L27.31 4.21ZM31.21 7.76L31.21 13.10L31.21 13.10Q31.21 13.19 31.18 13.32L31.18 13.32L31.18 13.32Q31.15 13.45 31.04 13.56L31.04 13.56L31.04 13.56Q30.93 13.67 30.71 13.75L30.71 13.75L30.71 13.75Q30.50 13.83 30.14 13.83L30.14 13.83L30.14 13.83Q29.78 13.83 29.57 13.74L29.57 13.74L29.57 13.74Q29.37 13.66 29.26 13.54L29.26 13.54L29.26 13.54Q29.16 13.43 29.14 13.30L29.14 13.30L29.14 13.30Q29.11 13.18 29.11 13.10L29.11 13.10L29.11 7.83L29.11 7.83Q29.11 7.63 29.02 7.48L29.02 7.48L29.02 7.48Q28.93 7.33 28.71 7.33L28.71 7.33L28.71 7.33Q28.59 7.33 28.51 7.38L28.51 7.38L28.51 7.38Q28.43 7.42 28.33 7.49L28.33 7.49L28.19 7.32L28.19 7.32Q28.35 7.19 28.54 7.06L28.54 7.06L28.54 7.06Q28.74 6.94 28.96 6.84L28.96 6.84L28.96 6.84Q29.19 6.75 29.45 6.69L29.45 6.69L29.45 6.69Q29.71 6.62 30.00 6.62L30.00 6.62L30.00 6.62Q30.44 6.62 30.69 6.74L30.69 6.74L30.69 6.74Q30.93 6.86 31.05 7.04L31.05 7.04L31.05 7.04Q31.17 7.21 31.19 7.41L31.19 7.41L31.19 7.41Q31.21 7.61 31.21 7.76L31.21 7.76ZM28.90 5.07L28.90 5.07L28.90 5.07Q28.90 4.87 28.99 4.70L28.99 4.70L28.99 4.70Q29.07 4.53 29.23 4.40L29.23 4.40L29.23 4.40Q29.38 4.27 29.58 4.19L29.58 4.19L29.58 4.19Q29.78 4.12 30.02 4.12L30.02 4.12L30.02 4.12Q30.26 4.12 30.46 4.19L30.46 4.19L30.46 4.19Q30.66 4.27 30.81 4.40L30.81 4.40L30.81 4.40Q30.96 4.53 31.05 4.70L31.05 4.70L31.05 4.70Q31.13 4.87 31.13 5.07L31.13 5.07L31.13 5.07Q31.13 5.26 31.05 5.43L31.05 5.43L31.05 5.43Q30.96 5.61 30.81 5.73L30.81 5.73L30.81 5.73Q30.66 5.86 30.46 5.93L30.46 5.93L30.46 5.93Q30.26 6.01 30.02 6.01L30.02 6.01L30.02 6.01Q29.78 6.01 29.58 5.93L29.58 5.93L29.58 5.93Q29.38 5.86 29.23 5.73L29.23 5.73L29.23 5.73Q29.07 5.61 28.99 5.43L28.99 5.43L28.99 5.43Q28.90 5.26 28.90 5.07ZM35.13 7.17L35.13 7.17L35.13 7.17Q34.97 7.17 34.83 7.21L34.83 7.21L34.83 7.21Q34.69 7.25 34.58 7.35L34.58 7.35L34.58 7.35Q34.47 7.44 34.41 7.58L34.41 7.58L34.41 7.58Q34.35 7.72 34.35 7.91L34.35 7.91L34.35 7.91Q34.35 8.18 34.55 8.44L34.55 8.44L34.55 8.44Q34.74 8.70 35.03 8.99L35.03 8.99L35.03 8.99Q35.32 9.27 35.66 9.57L35.66 9.57L35.66 9.57Q36.00 9.88 36.29 10.22L36.29 10.22L36.29 10.22Q36.58 10.55 36.77 10.94L36.77 10.94L36.77 10.94Q36.97 11.32 36.97 11.76L36.97 11.76L36.97 11.76Q36.97 12.25 36.80 12.63L36.80 12.63L36.80 12.63Q36.63 13.02 36.32 13.28L36.32 13.28L36.32 13.28Q36.01 13.55 35.57 13.69L35.57 13.69L35.57 13.69Q35.13 13.83 34.59 13.83L34.59 13.83L34.59 13.83Q34.12 13.83 33.74 13.70L33.74 13.70L33.74 13.70Q33.35 13.56 33.06 13.37L33.06 13.37L33.06 13.37Q32.76 13.17 32.55 12.95L32.55 12.95L32.55 12.95Q32.33 12.74 32.22 12.56L32.22 12.56L32.46 12.39L32.46 12.39Q32.55 12.49 32.68 12.61L32.68 12.61L32.68 12.61Q32.82 12.73 32.99 12.83L32.99 12.83L32.99 12.83Q33.15 12.93 33.35 13.00L33.35 13.00L33.35 13.00Q33.54 13.06 33.74 13.06L33.74 13.06L33.74 13.06Q34.23 13.06 34.54 12.83L34.54 12.83L34.54 12.83Q34.86 12.59 34.86 12.13L34.86 12.13L34.86 12.13Q34.86 11.87 34.69 11.59L34.69 11.59L34.69 11.59Q34.51 11.31 34.25 11.02L34.25 11.02L34.25 11.02Q34.00 10.73 33.69 10.41L33.69 10.41L33.69 10.41Q33.39 10.10 33.13 9.76L33.13 9.76L33.13 9.76Q32.87 9.43 32.70 9.07L32.70 9.07L32.70 9.07Q32.53 8.72 32.53 8.33L32.53 8.33L32.53 8.33Q32.53 7.90 32.71 7.58L32.71 7.58L32.71 7.58Q32.88 7.26 33.17 7.05L33.17 7.05L33.17 7.05Q33.46 6.84 33.83 6.73L33.83 6.73L33.83 6.73Q34.21 6.62 34.60 6.62L34.60 6.62L34.60 6.62Q35.06 6.62 35.44 6.71L35.44 6.71L35.44 6.71Q35.81 6.79 36.08 6.96L36.08 6.96L36.08 6.96Q36.35 7.12 36.50 7.38L36.50 7.38L36.50 7.38Q36.65 7.63 36.65 7.96L36.65 7.96L36.65 7.96Q36.65 8.22 36.48 8.42L36.48 8.42L36.48 8.42Q36.31 8.61 36.00 8.61L36.00 8.61L36.00 8.61Q35.70 8.61 35.55 8.48L35.55 8.48L35.55 8.48Q35.40 8.35 35.40 8.13L35.40 8.13L35.40 8.13Q35.40 7.99 35.47 7.91L35.47 7.91L35.47 7.91Q35.54 7.83 35.63 7.78L35.63 7.78L35.63 7.78Q35.72 7.72 35.79 7.69L35.79 7.69L35.79 7.69Q35.86 7.65 35.86 7.59L35.86 7.59L35.86 7.59Q35.86 7.40 35.66 7.28L35.66 7.28L35.66 7.28Q35.45 7.17 35.13 7.17ZM40.22 4.21L40.22 7.92L40.22 7.92Q40.47 7.56 40.79 7.27L40.79 7.27L40.79 7.27Q40.92 7.15 41.08 7.03L41.08 7.03L41.08 7.03Q41.24 6.92 41.42 6.83L41.42 6.83L41.42 6.83Q41.60 6.73 41.81 6.68L41.81 6.68L41.81 6.68Q42.01 6.62 42.22 6.62L42.22 6.62L42.22 6.62Q42.68 6.62 43.04 6.80L43.04 6.80L43.04 6.80Q43.40 6.98 43.65 7.40L43.65 7.40L43.65 7.40Q43.89 7.81 44.02 8.50L44.02 8.50L44.02 8.50Q44.15 9.19 44.15 10.21L44.15 10.21L44.15 10.21Q44.15 11.20 43.98 11.93L43.98 11.93L43.98 11.93Q43.80 12.66 43.51 13.17L43.51 13.17L43.51 13.17Q43.22 13.69 42.86 14.01L42.86 14.01L42.86 14.01Q42.50 14.33 42.13 14.52L42.13 14.52L42.13 14.52Q41.76 14.70 41.42 14.78L41.42 14.78L41.42 14.78Q41.08 14.85 40.83 14.85L40.83 14.85L40.76 14.57L40.76 14.57Q41.07 14.50 41.31 14.29L41.31 14.29L41.31 14.29Q41.55 14.09 41.71 13.62L41.71 13.62L41.71 13.62Q41.88 13.15 41.96 12.36L41.96 12.36L41.96 12.36Q42.05 11.57 42.05 10.32L42.05 10.32L42.05 10.32Q42.05 9.45 41.97 8.94L41.97 8.94L41.97 8.94Q41.89 8.42 41.76 8.15L41.76 8.15L41.76 8.15Q41.64 7.88 41.48 7.80L41.48 7.80L41.48 7.80Q41.32 7.71 41.15 7.71L41.15 7.71L41.15 7.71Q40.95 7.71 40.80 7.82L40.80 7.82L40.80 7.82Q40.65 7.92 40.54 8.06L40.54 8.06L40.54 8.06Q40.43 8.20 40.35 8.33L40.35 8.33L40.35 8.33Q40.27 8.47 40.22 8.54L40.22 8.54L40.22 13.10L40.22 13.10Q40.22 13.19 40.19 13.32L40.19 13.32L40.19 13.32Q40.16 13.45 40.06 13.56L40.06 13.56L40.06 13.56Q39.95 13.67 39.74 13.75L39.74 13.75L39.74 13.75Q39.53 13.83 39.17 13.83L39.17 13.83L39.17 13.83Q38.81 13.83 38.60 13.74L38.60 13.74L38.60 13.74Q38.38 13.66 38.28 13.54L38.28 13.54L38.28 13.54Q38.17 13.43 38.14 13.30L38.14 13.30L38.14 13.30Q38.12 13.18 38.12 13.10L38.12 13.10L38.12 4.29L38.12 4.29Q38.12 4.09 38.02 3.94L38.02 3.94L38.02 3.94Q37.93 3.79 37.71 3.79L37.71 3.79L37.71 3.79Q37.60 3.79 37.51 3.83L37.51 3.83L37.51 3.83Q37.43 3.87 37.33 3.94L37.33 3.94L37.19 3.78L37.19 3.78Q37.35 3.65 37.54 3.52L37.54 3.52L37.54 3.52Q37.73 3.40 37.96 3.30L37.96 3.30L37.96 3.30Q38.19 3.21 38.45 3.14L38.45 3.14L38.45 3.14Q38.71 3.08 39.00 3.08L39.00 3.08L39.00 3.08Q39.44 3.08 39.69 3.20L39.69 3.20L39.69 3.20Q39.94 3.32 40.05 3.50L40.05 3.50L40.05 3.50Q40.17 3.67 40.19 3.87L40.19 3.87L40.19 3.87Q40.22 4.06 40.22 4.21L40.22 4.21ZM54.87 12.73L54.32 10.83L51.74 10.83L51.74 10.83Q51.45 11.74 51.12 12.40L51.12 12.40L51.12 12.40Q50.79 13.06 50.39 13.50L50.39 13.50L50.39 13.50Q49.98 13.94 49.50 14.15L49.50 14.15L49.50 14.15Q49.02 14.36 48.43 14.36L48.43 14.36L48.43 14.36Q48.10 14.36 47.79 14.30L47.79 14.30L47.79 14.30Q47.49 14.25 47.26 14.14L47.26 14.14L47.26 14.14Q47.02 14.04 46.88 13.90L46.88 13.90L46.88 13.90Q46.74 13.76 46.74 13.60L46.74 13.60L46.74 13.60Q46.74 13.47 46.78 13.35L46.78 13.35L46.78 13.35Q46.82 13.22 46.89 13.11L46.89 13.11L46.89 13.11Q46.96 13.01 47.06 12.94L47.06 12.94L47.06 12.94Q47.15 12.88 47.28 12.88L47.28 12.88L47.28 12.88Q47.39 12.88 47.47 13.03L47.47 13.03L47.47 13.03Q47.55 13.18 47.68 13.36L47.68 13.36L47.68 13.36Q47.80 13.54 48.00 13.69L48.00 13.69L48.00 13.69Q48.20 13.84 48.55 13.84L48.55 13.84L48.55 13.84Q48.90 13.84 49.23 13.67L49.23 13.67L49.23 13.67Q49.55 13.50 49.84 13.14L49.84 13.14L49.84 13.14Q50.14 12.77 50.42 12.20L50.42 12.20L50.42 12.20Q50.69 11.63 50.95 10.83L50.95 10.83L49.33 10.83L49.33 10.23L51.13 10.23L51.13 10.23Q51.35 9.47 51.57 8.69L51.57 8.69L51.57 8.69Q51.78 7.91 51.97 7.19L51.97 7.19L51.97 7.19Q52.17 6.47 52.32 5.85L52.32 5.85L52.32 5.85Q52.47 5.22 52.57 4.76L52.57 4.76L52.57 4.76Q52.43 4.38 52.20 4.25L52.20 4.25L52.20 4.25Q51.96 4.12 51.56 4.12L51.56 4.12L51.56 4.12Q51.19 4.12 50.80 4.23L50.80 4.23L50.80 4.23Q50.41 4.34 50.09 4.55L50.09 4.55L50.09 4.55Q49.77 4.76 49.56 5.06L49.56 5.06L49.56 5.06Q49.35 5.37 49.35 5.74L49.35 5.74L49.35 5.74Q49.35 5.96 49.41 6.09L49.41 6.09L49.41 6.09Q49.46 6.22 49.54 6.29L49.54 6.29L49.54 6.29Q49.62 6.35 49.70 6.37L49.70 6.37L49.70 6.37Q49.77 6.38 49.81 6.38L49.81 6.38L49.81 6.38Q49.98 6.38 50.09 6.33L50.09 6.33L50.09 6.33Q50.20 6.27 50.29 6.20L50.29 6.20L50.29 6.20Q50.37 6.14 50.46 6.08L50.46 6.08L50.46 6.08Q50.54 6.02 50.64 6.02L50.64 6.02L50.64 6.02Q50.72 6.02 50.81 6.06L50.81 6.06L50.81 6.06Q50.90 6.10 50.98 6.18L50.98 6.18L50.98 6.18Q51.06 6.26 51.11 6.40L51.11 6.40L51.11 6.40Q51.17 6.53 51.17 6.72L51.17 6.72L51.17 6.72Q51.17 6.99 51.06 7.19L51.06 7.19L51.06 7.19Q50.96 7.39 50.79 7.52L50.79 7.52L50.79 7.52Q50.62 7.66 50.40 7.72L50.40 7.72L50.40 7.72Q50.19 7.79 49.98 7.79L49.98 7.79L49.98 7.79Q49.65 7.79 49.39 7.67L49.39 7.67L49.39 7.67Q49.12 7.55 48.94 7.34L48.94 7.34L48.94 7.34Q48.75 7.14 48.66 6.86L48.66 6.86L48.66 6.86Q48.56 6.59 48.56 6.29L48.56 6.29L48.56 6.29Q48.56 5.84 48.71 5.46L48.71 5.46L48.71 5.46Q48.86 5.08 49.13 4.77L49.13 4.77L49.13 4.77Q49.40 4.46 49.76 4.22L49.76 4.22L49.76 4.22Q50.12 3.99 50.54 3.82L50.54 3.82L50.54 3.82Q50.96 3.66 51.42 3.58L51.42 3.58L51.42 3.58Q51.88 3.50 52.34 3.50L52.34 3.50L52.34 3.50Q53.00 3.50 53.45 3.61L53.45 3.61L53.45 3.61Q53.91 3.71 54.22 3.92L54.22 3.92L54.22 3.92Q54.52 4.13 54.71 4.45L54.71 4.45L54.71 4.45Q54.90 4.76 55.02 5.18L55.02 5.18L56.49 10.23L57.98 10.23L57.98 10.83L56.66 10.83L57.19 12.63L57.19 12.63Q57.22 12.73 57.24 12.82L57.24 12.82L57.24 12.82Q57.27 12.91 57.31 12.97L57.31 12.97L57.31 12.97Q57.35 13.04 57.40 13.08L57.40 13.08L57.40 13.08Q57.46 13.12 57.55 13.12L57.55 13.12L57.55 13.12Q57.74 13.12 57.91 13.05L57.91 13.05L57.91 13.05Q58.07 12.99 58.19 12.92L58.19 12.92L58.31 13.17L58.31 13.17Q58.19 13.26 58.00 13.37L58.00 13.37L58.00 13.37Q57.81 13.49 57.57 13.59L57.57 13.59L57.57 13.59Q57.33 13.69 57.03 13.76L57.03 13.76L57.03 13.76Q56.74 13.83 56.40 13.83L56.40 13.83L56.40 13.83Q55.94 13.83 55.65 13.71L55.65 13.71L55.65 13.71Q55.37 13.60 55.21 13.43L55.21 13.43L55.21 13.43Q55.05 13.25 54.98 13.06L54.98 13.06L54.98 13.06Q54.91 12.87 54.87 12.73L54.87 12.73ZM54.15 10.23L52.99 6.21L52.99 6.21Q52.71 7.36 52.45 8.36L52.45 8.36L52.45 8.36Q52.19 9.37 51.93 10.23L51.93 10.23L54.15 10.23ZM66.93 8.79L66.93 8.79L66.93 8.79Q66.93 8.34 66.87 8.05L66.87 8.05L66.87 8.05Q66.81 7.75 66.74 7.56L66.74 7.56L66.74 7.56Q66.66 7.36 66.60 7.24L66.60 7.24L66.60 7.24Q66.54 7.11 66.54 7L66.54 7L66.54 7Q66.54 6.90 66.62 6.83L66.62 6.83L66.62 6.83Q66.71 6.76 66.82 6.71L66.82 6.71L66.82 6.71Q66.93 6.67 67.05 6.64L67.05 6.64L67.05 6.64Q67.17 6.62 67.25 6.62L67.25 6.62L67.25 6.62Q67.44 6.62 67.53 6.68L67.53 6.68L67.53 6.68Q67.62 6.73 67.68 6.89L67.68 6.89L67.68 6.89Q67.74 7.09 67.76 7.41L67.76 7.41L67.76 7.41Q67.79 7.74 67.79 8.11L67.79 8.11L67.79 8.11Q67.79 8.63 67.72 9.26L67.72 9.26L67.72 9.26Q67.66 9.89 67.53 10.53L67.53 10.53L67.53 10.53Q67.40 11.16 67.19 11.76L67.19 11.76L67.19 11.76Q66.98 12.35 66.68 12.81L66.68 12.81L66.68 12.81Q66.39 13.28 66.01 13.55L66.01 13.55L66.01 13.55Q65.63 13.83 65.14 13.83L65.14 13.83L65.14 13.83Q64.76 13.83 64.45 13.68L64.45 13.68L64.45 13.68Q64.15 13.52 63.91 13.25L63.91 13.25L63.91 13.25Q63.67 12.99 63.49 12.63L63.49 12.63L63.49 12.63Q63.31 12.27 63.17 11.86L63.17 11.86L63.17 11.86Q63.01 12.28 62.81 12.64L62.81 12.64L62.81 12.64Q62.60 13.00 62.35 13.26L62.35 13.26L62.35 13.26Q62.10 13.53 61.80 13.68L61.80 13.68L61.80 13.68Q61.50 13.83 61.15 13.83L61.15 13.83L61.15 13.83Q60.72 13.83 60.39 13.64L60.39 13.64L60.39 13.64Q60.06 13.45 59.81 13.13L59.81 13.13L59.81 13.13Q59.55 12.80 59.37 12.37L59.37 12.37L59.37 12.37Q59.19 11.94 59.05 11.46L59.05 11.46L59.05 11.46Q58.92 10.99 58.83 10.48L58.83 10.48L58.83 10.48Q58.74 9.97 58.68 9.50L58.68 9.50L58.68 9.50Q58.62 9.03 58.58 8.62L58.58 8.62L58.58 8.62Q58.54 8.21 58.50 7.91L58.50 7.91L58.50 7.91Q58.45 7.64 58.35 7.49L58.35 7.49L58.35 7.49Q58.26 7.33 58.04 7.33L58.04 7.33L58.04 7.33Q57.93 7.33 57.85 7.38L57.85 7.38L57.85 7.38Q57.76 7.42 57.67 7.49L57.67 7.49L57.52 7.32L57.52 7.32Q57.68 7.19 57.88 7.06L57.88 7.06L57.88 7.06Q58.07 6.94 58.30 6.84L58.30 6.84L58.30 6.84Q58.52 6.75 58.78 6.69L58.78 6.69L58.78 6.69Q59.04 6.62 59.33 6.62L59.33 6.62L59.33 6.62Q59.74 6.62 59.99 6.76L59.99 6.76L59.99 6.76Q60.25 6.90 60.39 7.11L60.39 7.11L60.39 7.11Q60.54 7.32 60.60 7.56L60.60 7.56L60.60 7.56Q60.66 7.80 60.69 7.99L60.69 7.99L60.69 7.99Q60.81 9.02 60.93 9.81L60.93 9.81L60.93 9.81Q61.05 10.60 61.19 11.13L61.19 11.13L61.19 11.13Q61.33 11.66 61.49 11.93L61.49 11.93L61.49 11.93Q61.65 12.20 61.87 12.20L61.87 12.20L61.87 12.20Q62.01 12.20 62.15 12.07L62.15 12.07L62.15 12.07Q62.28 11.95 62.41 11.73L62.41 11.73L62.41 11.73Q62.53 11.51 62.64 11.20L62.64 11.20L62.64 11.20Q62.75 10.89 62.83 10.51L62.83 10.51L62.83 10.51Q62.76 10.14 62.71 9.77L62.71 9.77L62.71 9.77Q62.67 9.40 62.63 9.06L62.63 9.06L62.63 9.06Q62.59 8.72 62.56 8.43L62.56 8.43L62.56 8.43Q62.52 8.13 62.48 7.91L62.48 7.91L62.48 7.91Q62.38 7.27 62.60 6.95L62.60 6.95L62.60 6.95Q62.82 6.62 63.49 6.62L63.49 6.62L63.49 6.62Q63.79 6.62 63.99 6.68L63.99 6.68L63.99 6.68Q64.19 6.73 64.32 6.87L64.32 6.87L64.32 6.87Q64.46 7.01 64.54 7.25L64.54 7.25L64.54 7.25Q64.62 7.49 64.67 7.87L64.67 7.87L64.67 7.87Q64.80 8.89 64.92 9.70L64.92 9.70L64.92 9.70Q65.04 10.51 65.18 11.06L65.18 11.06L65.18 11.06Q65.32 11.61 65.48 11.90L65.48 11.90L65.48 11.90Q65.64 12.20 65.86 12.20L65.86 12.20L65.86 12.20Q66.09 12.20 66.29 11.91L66.29 11.91L66.29 11.91Q66.49 11.62 66.63 11.15L66.63 11.15L66.63 11.15Q66.77 10.68 66.85 10.06L66.85 10.06L66.85 10.06Q66.93 9.45 66.93 8.79ZM73.14 10.32L73.14 10.32L73.14 10.32Q73.14 9.45 73.06 8.94L73.06 8.94L73.06 8.94Q72.98 8.42 72.85 8.15L72.85 8.15L72.85 8.15Q72.72 7.88 72.56 7.80L72.56 7.80L72.56 7.80Q72.41 7.71 72.24 7.71L72.24 7.71L72.24 7.71Q72.04 7.71 71.89 7.82L71.89 7.82L71.89 7.82Q71.74 7.92 71.62 8.06L71.62 8.06L71.62 8.06Q71.51 8.20 71.43 8.33L71.43 8.33L71.43 8.33Q71.35 8.47 71.30 8.54L71.30 8.54L71.30 13.10L71.30 13.10Q71.30 13.19 71.27 13.32L71.27 13.32L71.27 13.32Q71.24 13.45 71.14 13.56L71.14 13.56L71.14 13.56Q71.03 13.67 70.82 13.75L70.82 13.75L70.82 13.75Q70.62 13.83 70.25 13.83L70.25 13.83L70.25 13.83Q69.89 13.83 69.68 13.74L69.68 13.74L69.68 13.74Q69.47 13.66 69.36 13.54L69.36 13.54L69.36 13.54Q69.25 13.43 69.23 13.30L69.23 13.30L69.23 13.30Q69.20 13.18 69.20 13.10L69.20 13.10L69.20 7.83L69.20 7.83Q69.20 7.63 69.11 7.48L69.11 7.48L69.11 7.48Q69.02 7.33 68.80 7.33L68.80 7.33L68.80 7.33Q68.68 7.33 68.60 7.38L68.60 7.38L68.60 7.38Q68.52 7.42 68.42 7.49L68.42 7.49L68.28 7.32L68.28 7.32Q68.43 7.19 68.63 7.06L68.63 7.06L68.63 7.06Q68.82 6.94 69.05 6.84L69.05 6.84L69.05 6.84Q69.28 6.75 69.54 6.69L69.54 6.69L69.54 6.69Q69.79 6.62 70.08 6.62L70.08 6.62L70.08 6.62Q70.53 6.62 70.77 6.77L70.77 6.77L70.77 6.77Q71.02 6.92 71.13 7.12L71.13 7.12L71.13 7.12Q71.25 7.33 71.27 7.55L71.27 7.55L71.27 7.55Q71.30 7.77 71.30 7.92L71.30 7.92L71.30 7.92Q71.55 7.56 71.87 7.27L71.87 7.27L71.87 7.27Q72.00 7.15 72.16 7.03L72.16 7.03L72.16 7.03Q72.32 6.92 72.51 6.83L72.51 6.83L72.51 6.83Q72.69 6.73 72.89 6.68L72.89 6.68L72.89 6.68Q73.09 6.62 73.30 6.62L73.30 6.62L73.30 6.62Q73.77 6.62 74.13 6.80L74.13 6.80L74.13 6.80Q74.48 6.98 74.73 7.40L74.73 7.40L74.73 7.40Q74.98 7.81 75.11 8.50L75.11 8.50L75.11 8.50Q75.24 9.19 75.24 10.21L75.24 10.21L75.24 10.21Q75.24 11.20 75.06 11.93L75.06 11.93L75.06 11.93Q74.88 12.66 74.59 13.17L74.59 13.17L74.59 13.17Q74.31 13.69 73.94 14.01L73.94 14.01L73.94 14.01Q73.58 14.33 73.21 14.52L73.21 14.52L73.21 14.52Q72.84 14.70 72.51 14.78L72.51 14.78L72.51 14.78Q72.17 14.85 71.92 14.85L71.92 14.85L71.85 14.57L71.85 14.57Q72.05 14.53 72.23 14.42L72.23 14.42L72.23 14.42Q72.40 14.32 72.54 14.12L72.54 14.12L72.54 14.12Q72.69 13.92 72.80 13.62L72.80 13.62L72.80 13.62Q72.91 13.32 72.98 12.86L72.98 12.86L72.98 12.86Q73.06 12.40 73.10 11.77L73.10 11.77L73.10 11.77Q73.14 11.15 73.14 10.32ZM78.83 7.76L78.83 13.10L78.83 13.10Q78.83 13.19 78.80 13.32L78.80 13.32L78.80 13.32Q78.77 13.45 78.66 13.56L78.66 13.56L78.66 13.56Q78.54 13.67 78.33 13.75L78.33 13.75L78.33 13.75Q78.12 13.83 77.76 13.83L77.76 13.83L77.76 13.83Q77.40 13.83 77.19 13.74L77.19 13.74L77.19 13.74Q76.99 13.66 76.88 13.54L76.88 13.54L76.88 13.54Q76.78 13.43 76.76 13.30L76.76 13.30L76.76 13.30Q76.73 13.18 76.73 13.10L76.73 13.10L76.73 7.83L76.73 7.83Q76.73 7.63 76.64 7.48L76.64 7.48L76.64 7.48Q76.55 7.33 76.33 7.33L76.33 7.33L76.33 7.33Q76.21 7.33 76.13 7.38L76.13 7.38L76.13 7.38Q76.05 7.42 75.95 7.49L75.95 7.49L75.81 7.32L75.81 7.32Q75.97 7.19 76.16 7.06L76.16 7.06L76.16 7.06Q76.36 6.94 76.58 6.84L76.58 6.84L76.58 6.84Q76.81 6.75 77.07 6.69L77.07 6.69L77.07 6.69Q77.33 6.62 77.62 6.62L77.62 6.62L77.62 6.62Q78.06 6.62 78.31 6.74L78.31 6.74L78.31 6.74Q78.55 6.86 78.67 7.04L78.67 7.04L78.67 7.04Q78.78 7.21 78.81 7.41L78.81 7.41L78.81 7.41Q78.83 7.61 78.83 7.76L78.83 7.76ZM76.52 5.07L76.52 5.07L76.52 5.07Q76.52 4.87 76.61 4.70L76.61 4.70L76.61 4.70Q76.69 4.53 76.85 4.40L76.85 4.40L76.85 4.40Q77 4.27 77.20 4.19L77.20 4.19L77.20 4.19Q77.40 4.12 77.64 4.12L77.64 4.12L77.64 4.12Q77.88 4.12 78.08 4.19L78.08 4.19L78.08 4.19Q78.28 4.27 78.43 4.40L78.43 4.40L78.43 4.40Q78.58 4.53 78.66 4.70L78.66 4.70L78.66 4.70Q78.75 4.87 78.75 5.07L78.75 5.07L78.75 5.07Q78.75 5.26 78.66 5.43L78.66 5.43L78.66 5.43Q78.58 5.61 78.43 5.73L78.43 5.73L78.43 5.73Q78.28 5.86 78.08 5.93L78.08 5.93L78.08 5.93Q77.88 6.01 77.64 6.01L77.64 6.01L77.64 6.01Q77.40 6.01 77.20 5.93L77.20 5.93L77.20 5.93Q77 5.86 76.85 5.73L76.85 5.73L76.85 5.73Q76.69 5.61 76.61 5.43L76.61 5.43L76.61 5.43Q76.52 5.26 76.52 5.07ZM84.57 10.32L84.57 10.32L84.57 10.32Q84.57 9.45 84.50 8.94L84.50 8.94L84.50 8.94Q84.42 8.42 84.29 8.15L84.29 8.15L84.29 8.15Q84.16 7.88 84 7.80L84 7.80L84 7.80Q83.84 7.71 83.68 7.71L83.68 7.71L83.68 7.71Q83.48 7.71 83.33 7.82L83.33 7.82L83.33 7.82Q83.17 7.92 83.06 8.06L83.06 8.06L83.06 8.06Q82.95 8.20 82.87 8.33L82.87 8.33L82.87 8.33Q82.79 8.47 82.74 8.54L82.74 8.54L82.74 13.10L82.74 13.10Q82.74 13.19 82.71 13.32L82.71 13.32L82.71 13.32Q82.68 13.45 82.57 13.56L82.57 13.56L82.57 13.56Q82.47 13.67 82.26 13.75L82.26 13.75L82.26 13.75Q82.05 13.83 81.69 13.83L81.69 13.83L81.69 13.83Q81.33 13.83 81.12 13.74L81.12 13.74L81.12 13.74Q80.91 13.66 80.80 13.54L80.80 13.54L80.80 13.54Q80.69 13.43 80.66 13.30L80.66 13.30L80.66 13.30Q80.64 13.18 80.64 13.10L80.64 13.10L80.64 7.83L80.64 7.83Q80.64 7.63 80.54 7.48L80.54 7.48L80.54 7.48Q80.45 7.33 80.23 7.33L80.23 7.33L80.23 7.33Q80.12 7.33 80.04 7.38L80.04 7.38L80.04 7.38Q79.95 7.42 79.86 7.49L79.86 7.49L79.71 7.32L79.71 7.32Q79.87 7.19 80.07 7.06L80.07 7.06L80.07 7.06Q80.26 6.94 80.49 6.84L80.49 6.84L80.49 6.84Q80.71 6.75 80.97 6.69L80.97 6.69L80.97 6.69Q81.23 6.62 81.52 6.62L81.52 6.62L81.52 6.62Q81.96 6.62 82.21 6.77L82.21 6.77L82.21 6.77Q82.46 6.92 82.57 7.12L82.57 7.12L82.57 7.12Q82.69 7.33 82.71 7.55L82.71 7.55L82.71 7.55Q82.74 7.77 82.74 7.92L82.74 7.92L82.74 7.92Q82.99 7.56 83.31 7.27L83.31 7.27L83.31 7.27Q83.44 7.15 83.60 7.03L83.60 7.03L83.60 7.03Q83.76 6.92 83.94 6.83L83.94 6.83L83.94 6.83Q84.12 6.73 84.32 6.68L84.32 6.68L84.32 6.68Q84.53 6.62 84.74 6.62L84.74 6.62L84.74 6.62Q85.20 6.62 85.56 6.80L85.56 6.80L85.56 6.80Q85.92 6.98 86.17 7.40L86.17 7.40L86.17 7.40Q86.41 7.81 86.54 8.50L86.54 8.50L86.54 8.50Q86.67 9.19 86.67 10.21L86.67 10.21L86.67 10.21Q86.67 11.20 86.50 11.93L86.50 11.93L86.50 11.93Q86.32 12.66 86.03 13.17L86.03 13.17L86.03 13.17Q85.74 13.69 85.38 14.01L85.38 14.01L85.38 14.01Q85.02 14.33 84.65 14.52L84.65 14.52L84.65 14.52Q84.28 14.70 83.94 14.78L83.94 14.78L83.94 14.78Q83.60 14.85 83.36 14.85L83.36 14.85L83.28 14.57L83.28 14.57Q83.49 14.53 83.66 14.42L83.66 14.42L83.66 14.42Q83.84 14.32 83.98 14.12L83.98 14.12L83.98 14.12Q84.12 13.92 84.23 13.62L84.23 13.62L84.23 13.62Q84.34 13.32 84.42 12.86L84.42 12.86L84.42 12.86Q84.50 12.40 84.54 11.77L84.54 11.77L84.54 11.77Q84.57 11.15 84.57 10.32ZM87.79 9.42L87.79 9.42L87.79 9.42Q87.79 8.72 88.04 8.20L88.04 8.20L88.04 8.20Q88.28 7.68 88.69 7.32L88.69 7.32L88.69 7.32Q89.10 6.97 89.64 6.80L89.64 6.80L89.64 6.80Q90.18 6.62 90.77 6.62L90.77 6.62L90.77 6.62Q91.37 6.62 91.90 6.78L91.90 6.78L91.90 6.78Q92.44 6.94 92.85 7.27L92.85 7.27L92.85 7.27Q92.98 7.07 93.06 6.85L93.06 6.85L93.06 6.85Q93.14 6.63 93.14 6.41L93.14 6.41L93.14 6.41Q93.14 6.13 92.99 5.95L92.99 5.95L92.99 5.95Q92.83 5.78 92.59 5.78L92.59 5.78L92.59 5.58L92.59 5.58Q92.74 5.54 92.86 5.50L92.86 5.50L92.86 5.50Q92.98 5.46 93.07 5.44L93.07 5.44L93.07 5.44Q93.17 5.42 93.26 5.41L93.26 5.41L93.26 5.41Q93.36 5.40 93.47 5.40L93.47 5.40L93.47 5.40Q93.80 5.40 93.97 5.60L93.97 5.60L93.97 5.60Q94.14 5.80 94.14 6.15L94.14 6.15L94.14 6.15Q94.14 6.35 94.04 6.55L94.04 6.55L94.04 6.55Q93.95 6.75 93.80 6.94L93.80 6.94L93.80 6.94Q93.66 7.12 93.48 7.29L93.48 7.29L93.48 7.29Q93.31 7.45 93.15 7.57L93.15 7.57L93.15 7.57Q93.44 7.90 93.60 8.34L93.60 8.34L93.60 8.34Q93.75 8.78 93.75 9.34L93.75 9.34L93.75 9.34Q93.75 10.04 93.51 10.58L93.51 10.58L93.51 10.58Q93.27 11.12 92.86 11.49L92.86 11.49L92.86 11.49Q92.45 11.86 91.91 12.05L91.91 12.05L91.91 12.05Q91.37 12.24 90.77 12.24L90.77 12.24L90.77 12.24Q90.43 12.24 90.09 12.17L90.09 12.17L90.09 12.17Q89.76 12.11 89.46 12.00L89.46 12.00L89.46 12.00Q89.35 12.08 89.27 12.20L89.27 12.20L89.27 12.20Q89.20 12.33 89.20 12.48L89.20 12.48L89.20 12.48Q89.20 12.73 89.41 12.85L89.41 12.85L89.41 12.85Q89.63 12.97 90.00 13.03L90.00 13.03L90.00 13.03Q90.36 13.08 90.82 13.10L90.82 13.10L90.82 13.10Q91.27 13.11 91.76 13.14L91.76 13.14L91.76 13.14Q92.24 13.17 92.70 13.26L92.70 13.26L92.70 13.26Q93.15 13.34 93.52 13.54L93.52 13.54L93.52 13.54Q93.88 13.73 94.10 14.07L94.10 14.07L94.10 14.07Q94.32 14.40 94.32 14.94L94.32 14.94L94.32 14.94Q94.32 15.33 94.15 15.64L94.15 15.64L94.15 15.64Q93.99 15.95 93.71 16.18L93.71 16.18L93.71 16.18Q93.43 16.42 93.07 16.59L93.07 16.59L93.07 16.59Q92.70 16.75 92.30 16.86L92.30 16.86L92.30 16.86Q91.89 16.97 91.47 17.01L91.47 17.01L91.47 17.01Q91.05 17.06 90.67 17.06L90.67 17.06L90.67 17.06Q89.97 17.06 89.41 16.99L89.41 16.99L89.41 16.99Q88.85 16.92 88.46 16.77L88.46 16.77L88.46 16.77Q88.07 16.62 87.86 16.38L87.86 16.38L87.86 16.38Q87.65 16.14 87.65 15.80L87.65 15.80L87.65 15.80Q87.65 15.57 87.76 15.36L87.76 15.36L87.76 15.36Q87.87 15.16 88.05 14.99L88.05 14.99L88.05 14.99Q88.23 14.83 88.46 14.69L88.46 14.69L88.46 14.69Q88.68 14.56 88.92 14.44L88.92 14.44L88.92 14.44Q88.57 14.30 88.34 14.01L88.34 14.01L88.34 14.01Q88.12 13.72 88.12 13.24L88.12 13.24L88.12 13.24Q88.12 12.99 88.20 12.77L88.20 12.77L88.20 12.77Q88.29 12.56 88.43 12.38L88.43 12.38L88.43 12.38Q88.57 12.20 88.74 12.05L88.74 12.05L88.74 12.05Q88.91 11.90 89.07 11.80L89.07 11.80L89.07 11.80Q88.79 11.63 88.55 11.40L88.55 11.40L88.55 11.40Q88.31 11.16 88.15 10.87L88.15 10.87L88.15 10.87Q87.98 10.57 87.89 10.21L87.89 10.21L87.89 10.21Q87.79 9.84 87.79 9.42ZM91.70 9.37L91.70 9.37L91.70 9.37Q91.70 8.97 91.66 8.59L91.66 8.59L91.66 8.59Q91.62 8.22 91.51 7.92L91.51 7.92L91.51 7.92Q91.41 7.63 91.23 7.45L91.23 7.45L91.23 7.45Q91.05 7.27 90.77 7.27L90.77 7.27L90.77 7.27Q90.49 7.27 90.32 7.45L90.32 7.45L90.32 7.45Q90.14 7.64 90.04 7.95L90.04 7.95L90.04 7.95Q89.93 8.25 89.89 8.64L89.89 8.64L89.89 8.64Q89.85 9.02 89.85 9.42L89.85 9.42L89.85 9.42Q89.85 9.82 89.89 10.21L89.89 10.21L89.89 10.21Q89.93 10.60 90.04 10.91L90.04 10.91L90.04 10.91Q90.14 11.22 90.32 11.41L90.32 11.41L90.32 11.41Q90.49 11.59 90.77 11.59L90.77 11.59L90.77 11.59Q91.05 11.59 91.23 11.40L91.23 11.40L91.23 11.40Q91.41 11.20 91.51 10.88L91.51 10.88L91.51 10.88Q91.62 10.56 91.66 10.17L91.66 10.17L91.66 10.17Q91.70 9.77 91.70 9.37ZM92.74 15.48L92.74 15.48L92.74 15.48Q92.74 15.26 92.57 15.12L92.57 15.12L92.57 15.12Q92.39 14.98 92.12 14.90L92.12 14.90L92.12 14.90Q91.84 14.81 91.49 14.77L91.49 14.77L91.49 14.77Q91.14 14.72 90.77 14.70L90.77 14.70L90.77 14.70Q90.41 14.68 90.07 14.66L90.07 14.66L90.07 14.66Q89.73 14.64 89.48 14.60L89.48 14.60L89.48 14.60Q89.33 14.70 89.20 14.82L89.20 14.82L89.20 14.82Q89.07 14.94 88.97 15.08L88.97 15.08L88.97 15.08Q88.87 15.21 88.81 15.36L88.81 15.36L88.81 15.36Q88.74 15.50 88.74 15.65L88.74 15.65L88.74 15.65Q88.74 15.91 88.89 16.09L88.89 16.09L88.89 16.09Q89.04 16.26 89.30 16.37L89.30 16.37L89.30 16.37Q89.56 16.47 89.90 16.51L89.90 16.51L89.90 16.51Q90.23 16.55 90.61 16.55L90.61 16.55L90.61 16.55Q91.11 16.55 91.51 16.46L91.51 16.46L91.51 16.46Q91.90 16.38 92.18 16.23L92.18 16.23L92.18 16.23Q92.45 16.08 92.59 15.89L92.59 15.89L92.59 15.89Q92.74 15.70 92.74 15.48ZM97.42 7.17L97.42 7.17L97.42 7.17Q97.26 7.17 97.12 7.21L97.12 7.21L97.12 7.21Q96.98 7.25 96.87 7.35L96.87 7.35L96.87 7.35Q96.76 7.44 96.70 7.58L96.70 7.58L96.70 7.58Q96.64 7.72 96.64 7.91L96.64 7.91L96.64 7.91Q96.64 8.18 96.83 8.44L96.83 8.44L96.83 8.44Q97.03 8.70 97.32 8.99L97.32 8.99L97.32 8.99Q97.61 9.27 97.95 9.57L97.95 9.57L97.95 9.57Q98.29 9.88 98.58 10.22L98.58 10.22L98.58 10.22Q98.87 10.55 99.06 10.94L99.06 10.94L99.06 10.94Q99.26 11.32 99.26 11.76L99.26 11.76L99.26 11.76Q99.26 12.25 99.09 12.63L99.09 12.63L99.09 12.63Q98.92 13.02 98.61 13.28L98.61 13.28L98.61 13.28Q98.30 13.55 97.86 13.69L97.86 13.69L97.86 13.69Q97.42 13.83 96.88 13.83L96.88 13.83L96.88 13.83Q96.41 13.83 96.02 13.70L96.02 13.70L96.02 13.70Q95.64 13.56 95.34 13.37L95.34 13.37L95.34 13.37Q95.05 13.17 94.83 12.95L94.83 12.95L94.83 12.95Q94.62 12.74 94.51 12.56L94.51 12.56L94.75 12.39L94.75 12.39Q94.83 12.49 94.97 12.61L94.97 12.61L94.97 12.61Q95.11 12.73 95.28 12.83L95.28 12.83L95.28 12.83Q95.44 12.93 95.63 13.00L95.63 13.00L95.63 13.00Q95.83 13.06 96.02 13.06L96.02 13.06L96.02 13.06Q96.52 13.06 96.83 12.83L96.83 12.83L96.83 12.83Q97.15 12.59 97.15 12.13L97.15 12.13L97.15 12.13Q97.15 11.87 96.97 11.59L96.97 11.59L96.97 11.59Q96.80 11.31 96.54 11.02L96.54 11.02L96.54 11.02Q96.28 10.73 95.98 10.41L95.98 10.41L95.98 10.41Q95.68 10.10 95.42 9.76L95.42 9.76L95.42 9.76Q95.16 9.43 94.99 9.07L94.99 9.07L94.99 9.07Q94.82 8.72 94.82 8.33L94.82 8.33L94.82 8.33Q94.82 7.90 95.00 7.58L95.00 7.58L95.00 7.58Q95.17 7.26 95.46 7.05L95.46 7.05L95.46 7.05Q95.75 6.84 96.12 6.73L96.12 6.73L96.12 6.73Q96.50 6.62 96.89 6.62L96.89 6.62L96.89 6.62Q97.35 6.62 97.73 6.71L97.73 6.71L97.73 6.71Q98.10 6.79 98.37 6.96L98.37 6.96L98.37 6.96Q98.64 7.12 98.79 7.38L98.79 7.38L98.79 7.38Q98.94 7.63 98.94 7.96L98.94 7.96L98.94 7.96Q98.94 8.22 98.77 8.42L98.77 8.42L98.77 8.42Q98.59 8.61 98.29 8.61L98.29 8.61L98.29 8.61Q97.99 8.61 97.84 8.48L97.84 8.48L97.84 8.48Q97.69 8.35 97.69 8.13L97.69 8.13L97.69 8.13Q97.69 7.99 97.76 7.91L97.76 7.91L97.76 7.91Q97.83 7.83 97.92 7.78L97.92 7.78L97.92 7.78Q98.01 7.72 98.08 7.69L98.08 7.69L98.08 7.69Q98.15 7.65 98.15 7.59L98.15 7.59L98.15 7.59Q98.15 7.40 97.95 7.28L97.95 7.28L97.95 7.28Q97.74 7.17 97.42 7.17ZM106.16 12.36L106.16 4.70L106.16 4.70Q106.16 4.48 105.99 4.38L105.99 4.38L105.99 4.38Q105.83 4.27 105.64 4.27L105.64 4.27L105.64 4.27Q105.26 4.27 104.90 4.39L104.90 4.39L104.90 4.39Q104.54 4.50 104.25 4.69L104.25 4.69L104.25 4.69Q103.96 4.89 103.79 5.16L103.79 5.16L103.79 5.16Q103.61 5.43 103.61 5.74L103.61 5.74L103.61 5.74Q103.61 5.96 103.67 6.09L103.67 6.09L103.67 6.09Q103.73 6.22 103.80 6.29L103.80 6.29L103.80 6.29Q103.88 6.35 103.96 6.37L103.96 6.37L103.96 6.37Q104.04 6.38 104.07 6.38L104.07 6.38L104.07 6.38Q104.24 6.38 104.35 6.33L104.35 6.33L104.35 6.33Q104.46 6.27 104.55 6.20L104.55 6.20L104.55 6.20Q104.64 6.14 104.72 6.08L104.72 6.08L104.72 6.08Q104.79 6.02 104.90 6.02L104.90 6.02L104.90 6.02Q104.98 6.02 105.07 6.06L105.07 6.06L105.07 6.06Q105.16 6.10 105.24 6.18L105.24 6.18L105.24 6.18Q105.32 6.26 105.38 6.40L105.38 6.40L105.38 6.40Q105.43 6.53 105.43 6.72L105.43 6.72L105.43 6.72Q105.43 6.99 105.32 7.19L105.32 7.19L105.32 7.19Q105.22 7.39 105.05 7.52L105.05 7.52L105.05 7.52Q104.88 7.66 104.67 7.72L104.67 7.72L104.67 7.72Q104.45 7.79 104.24 7.79L104.24 7.79L104.24 7.79Q103.91 7.79 103.65 7.67L103.65 7.67L103.65 7.67Q103.39 7.56 103.20 7.36L103.20 7.36L103.20 7.36Q103.02 7.16 102.92 6.90L102.92 6.90L102.92 6.90Q102.83 6.63 102.83 6.33L102.83 6.33L102.83 6.33Q102.83 5.48 103.26 4.93L103.26 4.93L103.26 4.93Q103.69 4.38 104.43 4.06L104.43 4.06L104.43 4.06Q105.17 3.74 106.16 3.62L106.16 3.62L106.16 3.62Q107.15 3.50 108.26 3.50L108.26 3.50L108.26 3.50Q109.53 3.50 110.56 3.76L110.56 3.76L110.56 3.76Q111.59 4.01 112.32 4.59L112.32 4.59L112.32 4.59Q113.05 5.16 113.45 6.09L113.45 6.09L113.45 6.09Q113.85 7.01 113.85 8.35L113.85 8.35L113.85 8.35Q113.85 9.68 113.43 10.71L113.43 10.71L113.43 10.71Q113.00 11.74 112.28 12.44L112.28 12.44L112.28 12.44Q111.55 13.15 110.57 13.51L110.57 13.51L110.57 13.51Q109.59 13.88 108.47 13.88L108.47 13.88L108.47 13.88Q107.72 13.88 107.27 13.81L107.27 13.81L107.27 13.81Q106.81 13.73 106.57 13.56L106.57 13.56L106.57 13.56Q106.32 13.38 106.24 13.09L106.24 13.09L106.24 13.09Q106.16 12.80 106.16 12.36L106.16 12.36ZM108.41 5.00L108.41 12.42L108.41 12.42Q108.41 12.81 108.59 12.98L108.59 12.98L108.59 12.98Q108.76 13.15 109.10 13.15L109.10 13.15L109.10 13.15Q109.61 13.15 110.05 12.92L110.05 12.92L110.05 12.92Q110.48 12.69 110.80 12.14L110.80 12.14L110.80 12.14Q111.11 11.59 111.29 10.68L111.29 10.68L111.29 10.68Q111.47 9.76 111.47 8.37L111.47 8.37L111.47 8.37Q111.47 7.44 111.35 6.76L111.35 6.76L111.35 6.76Q111.24 6.08 111.06 5.61L111.06 5.61L111.06 5.61Q110.87 5.13 110.64 4.84L110.64 4.84L110.64 4.84Q110.40 4.54 110.15 4.37L110.15 4.37L110.15 4.37Q109.91 4.20 109.67 4.15L109.67 4.15L109.67 4.15Q109.44 4.09 109.25 4.09L109.25 4.09L109.25 4.09Q108.81 4.09 108.61 4.29L108.61 4.29L108.61 4.29Q108.41 4.48 108.41 5.00L108.41 5.00ZM117.44 7.76L117.44 13.10L117.44 13.10Q117.44 13.19 117.41 13.32L117.41 13.32L117.41 13.32Q117.38 13.45 117.27 13.56L117.27 13.56L117.27 13.56Q117.15 13.67 116.94 13.75L116.94 13.75L116.94 13.75Q116.73 13.83 116.37 13.83L116.37 13.83L116.37 13.83Q116.01 13.83 115.80 13.74L115.80 13.74L115.80 13.74Q115.60 13.66 115.49 13.54L115.49 13.54L115.49 13.54Q115.39 13.43 115.37 13.30L115.37 13.30L115.37 13.30Q115.34 13.18 115.34 13.10L115.34 13.10L115.34 7.83L115.34 7.83Q115.34 7.63 115.25 7.48L115.25 7.48L115.25 7.48Q115.16 7.33 114.94 7.33L114.94 7.33L114.94 7.33Q114.82 7.33 114.74 7.38L114.74 7.38L114.74 7.38Q114.66 7.42 114.56 7.49L114.56 7.49L114.42 7.32L114.42 7.32Q114.58 7.19 114.77 7.06L114.77 7.06L114.77 7.06Q114.97 6.94 115.19 6.84L115.19 6.84L115.19 6.84Q115.42 6.75 115.68 6.69L115.68 6.69L115.68 6.69Q115.94 6.62 116.22 6.62L116.22 6.62L116.22 6.62Q116.67 6.62 116.92 6.74L116.92 6.74L116.92 6.74Q117.16 6.86 117.28 7.04L117.28 7.04L117.28 7.04Q117.39 7.21 117.42 7.41L117.42 7.41L117.42 7.41Q117.44 7.61 117.44 7.76L117.44 7.76ZM115.13 5.07L115.13 5.07L115.13 5.07Q115.13 4.87 115.22 4.70L115.22 4.70L115.22 4.70Q115.30 4.53 115.46 4.40L115.46 4.40L115.46 4.40Q115.61 4.27 115.81 4.19L115.81 4.19L115.81 4.19Q116.01 4.12 116.25 4.12L116.25 4.12L116.25 4.12Q116.48 4.12 116.69 4.19L116.69 4.19L116.69 4.19Q116.89 4.27 117.04 4.40L117.04 4.40L117.04 4.40Q117.19 4.53 117.27 4.70L117.27 4.70L117.27 4.70Q117.36 4.87 117.36 5.07L117.36 5.07L117.36 5.07Q117.36 5.26 117.27 5.43L117.27 5.43L117.27 5.43Q117.19 5.61 117.04 5.73L117.04 5.73L117.04 5.73Q116.89 5.86 116.69 5.93L116.69 5.93L116.69 5.93Q116.48 6.01 116.25 6.01L116.25 6.01L116.25 6.01Q116.01 6.01 115.81 5.93L115.81 5.93L115.81 5.93Q115.61 5.86 115.46 5.73L115.46 5.73L115.46 5.73Q115.30 5.61 115.22 5.43L115.22 5.43L115.22 5.43Q115.13 5.26 115.13 5.07ZM121.34 8.07L121.34 8.07L121.34 8.07Q121.60 7.67 121.90 7.35L121.90 7.35L121.90 7.35Q122.02 7.21 122.17 7.08L122.17 7.08L122.17 7.08Q122.31 6.95 122.46 6.85L122.46 6.85L122.46 6.85Q122.62 6.75 122.78 6.69L122.78 6.69L122.78 6.69Q122.94 6.62 123.11 6.62L123.11 6.62L123.11 6.62Q123.46 6.62 123.66 6.83L123.66 6.83L123.66 6.83Q123.85 7.04 123.85 7.42L123.85 7.42L123.85 7.42Q123.85 7.65 123.82 7.86L123.82 7.86L123.82 7.86Q123.78 8.08 123.67 8.39L123.67 8.39L123.48 8.39L123.48 8.39Q123.44 8.18 123.29 8.04L123.29 8.04L123.29 8.04Q123.14 7.90 122.85 7.90L122.85 7.90L122.85 7.90Q122.64 7.90 122.43 7.97L122.43 7.97L122.43 7.97Q122.23 8.05 122.03 8.17L122.03 8.17L122.03 8.17Q121.84 8.29 121.66 8.42L121.66 8.42L121.66 8.42Q121.49 8.56 121.34 8.68L121.34 8.68L121.34 13.12L121.34 13.12Q121.34 13.21 121.32 13.33L121.32 13.33L121.32 13.33Q121.29 13.45 121.18 13.56L121.18 13.56L121.18 13.56Q121.08 13.67 120.87 13.75L120.87 13.75L120.87 13.75Q120.66 13.83 120.30 13.83L120.30 13.83L120.30 13.83Q119.94 13.83 119.73 13.74L119.73 13.74L119.73 13.74Q119.52 13.66 119.41 13.54L119.41 13.54L119.41 13.54Q119.30 13.43 119.27 13.30L119.27 13.30L119.27 13.30Q119.25 13.18 119.25 13.10L119.25 13.10L119.25 7.83L119.25 7.83Q119.25 7.63 119.15 7.48L119.15 7.48L119.15 7.48Q119.06 7.33 118.84 7.33L118.84 7.33L118.84 7.33Q118.73 7.33 118.64 7.38L118.64 7.38L118.64 7.38Q118.56 7.42 118.47 7.49L118.47 7.49L118.32 7.32L118.32 7.32Q118.48 7.19 118.68 7.06L118.68 7.06L118.68 7.06Q118.87 6.94 119.10 6.84L119.10 6.84L119.10 6.84Q119.32 6.75 119.58 6.69L119.58 6.69L119.58 6.69Q119.84 6.62 120.13 6.62L120.13 6.62L120.13 6.62Q120.42 6.62 120.63 6.70L120.63 6.70L120.63 6.70Q120.84 6.78 120.97 6.91L120.97 6.91L120.97 6.91Q121.11 7.03 121.18 7.19L121.18 7.19L121.18 7.19Q121.26 7.35 121.29 7.51L121.29 7.51L121.29 7.51Q121.33 7.67 121.34 7.82L121.34 7.82L121.34 7.82Q121.34 7.96 121.34 8.07ZM128.91 8.99L126.21 10.58L126.21 10.58Q126.21 10.80 126.27 11.06L126.27 11.06L126.27 11.06Q126.33 11.31 126.46 11.57L126.46 11.57L126.46 11.57Q126.58 11.83 126.76 12.07L126.76 12.07L126.76 12.07Q126.94 12.30 127.18 12.49L127.18 12.49L127.18 12.49Q127.42 12.67 127.70 12.78L127.70 12.78L127.70 12.78Q127.99 12.89 128.33 12.89L128.33 12.89L128.33 12.89Q128.57 12.89 128.78 12.84L128.78 12.84L128.78 12.84Q128.98 12.78 129.16 12.69L129.16 12.69L129.16 12.69Q129.34 12.59 129.50 12.47L129.50 12.47L129.50 12.47Q129.66 12.34 129.83 12.20L129.83 12.20L130.00 12.36L130.00 12.36Q129.84 12.57 129.60 12.82L129.60 12.82L129.60 12.82Q129.35 13.08 129.00 13.30L129.00 13.30L129.00 13.30Q128.65 13.52 128.19 13.67L128.19 13.67L128.19 13.67Q127.72 13.82 127.13 13.82L127.13 13.82L127.13 13.82Q126.53 13.82 125.97 13.60L125.97 13.60L125.97 13.60Q125.41 13.38 124.97 12.95L124.97 12.95L124.97 12.95Q124.53 12.52 124.27 11.88L124.27 11.88L124.27 11.88Q124.00 11.24 124.00 10.38L124.00 10.38L124.00 10.38Q124.00 9.75 124.16 9.24L124.16 9.24L124.16 9.24Q124.32 8.72 124.59 8.30L124.59 8.30L124.59 8.30Q124.86 7.88 125.22 7.57L125.22 7.57L125.22 7.57Q125.58 7.25 125.97 7.04L125.97 7.04L125.97 7.04Q126.37 6.84 126.78 6.73L126.78 6.73L126.78 6.73Q127.20 6.62 127.58 6.62L127.58 6.62L127.58 6.62Q128.08 6.62 128.46 6.73L128.46 6.73L128.46 6.73Q128.84 6.84 129.09 7.03L129.09 7.03L129.09 7.03Q129.34 7.21 129.46 7.45L129.46 7.45L129.46 7.45Q129.58 7.70 129.58 7.96L129.58 7.96L129.58 7.96Q129.58 8.29 129.40 8.54L129.40 8.54L129.40 8.54Q129.21 8.80 128.91 8.99L128.91 8.99ZM126.14 10.02L127.58 9.19L127.58 9.19Q127.67 9.14 127.73 9.09L127.73 9.09L127.73 9.09Q127.78 9.04 127.82 8.97L127.82 8.97L127.82 8.97Q127.85 8.89 127.87 8.79L127.87 8.79L127.87 8.79Q127.89 8.68 127.89 8.52L127.89 8.52L127.89 8.52Q127.89 8.35 127.85 8.15L127.85 8.15L127.85 8.15Q127.81 7.94 127.72 7.75L127.72 7.75L127.72 7.75Q127.63 7.57 127.50 7.44L127.50 7.44L127.50 7.44Q127.36 7.32 127.17 7.32L127.17 7.32L127.17 7.32Q126.92 7.32 126.75 7.47L126.75 7.47L126.75 7.47Q126.57 7.62 126.46 7.85L126.46 7.85L126.46 7.85Q126.35 8.08 126.28 8.38L126.28 8.38L126.28 8.38Q126.22 8.67 126.18 8.98L126.18 8.98L126.18 8.98Q126.15 9.28 126.14 9.55L126.14 9.55L126.14 9.55Q126.14 9.83 126.14 10.02L126.14 10.02ZM135.13 8.99L135.13 8.99L135.13 8.99Q134.91 8.99 134.77 8.92L134.77 8.92L134.77 8.92Q134.63 8.86 134.54 8.75L134.54 8.75L134.54 8.75Q134.45 8.64 134.41 8.51L134.41 8.51L134.41 8.51Q134.37 8.37 134.37 8.23L134.37 8.23L134.37 8.23Q134.37 8.05 134.39 7.88L134.39 7.88L134.39 7.88Q134.42 7.70 134.40 7.57L134.40 7.57L134.40 7.57Q134.38 7.43 134.29 7.35L134.29 7.35L134.29 7.35Q134.20 7.27 133.98 7.27L133.98 7.27L133.98 7.27Q133.74 7.27 133.47 7.40L133.47 7.40L133.47 7.40Q133.21 7.54 132.99 7.83L132.99 7.83L132.99 7.83Q132.77 8.13 132.62 8.59L132.62 8.59L132.62 8.59Q132.48 9.05 132.48 9.70L132.48 9.70L132.48 9.70Q132.48 10.42 132.61 11.01L132.61 11.01L132.61 11.01Q132.75 11.60 133.01 12.02L133.01 12.02L133.01 12.02Q133.28 12.43 133.68 12.66L133.68 12.66L133.68 12.66Q134.07 12.89 134.61 12.89L134.61 12.89L134.61 12.89Q134.85 12.89 135.06 12.84L135.06 12.84L135.06 12.84Q135.28 12.78 135.47 12.69L135.47 12.69L135.47 12.69Q135.66 12.59 135.83 12.47L135.83 12.47L135.83 12.47Q136.01 12.34 136.17 12.20L136.17 12.20L136.34 12.36L136.34 12.36Q136.19 12.57 135.94 12.82L135.94 12.82L135.94 12.82Q135.69 13.08 135.34 13.30L135.34 13.30L135.34 13.30Q135.00 13.52 134.53 13.67L134.53 13.67L134.53 13.67Q134.07 13.82 133.47 13.82L133.47 13.82L133.47 13.82Q132.88 13.82 132.31 13.59L132.31 13.59L132.31 13.59Q131.75 13.36 131.31 12.92L131.31 12.92L131.31 12.92Q130.87 12.48 130.61 11.86L130.61 11.86L130.61 11.86Q130.35 11.23 130.35 10.43L130.35 10.43L130.35 10.43Q130.35 9.81 130.50 9.29L130.50 9.29L130.50 9.29Q130.66 8.76 130.93 8.34L130.93 8.34L130.93 8.34Q131.20 7.92 131.56 7.59L131.56 7.59L131.56 7.59Q131.92 7.27 132.32 7.06L132.32 7.06L132.32 7.06Q132.71 6.84 133.13 6.73L133.13 6.73L133.13 6.73Q133.54 6.62 133.92 6.62L133.92 6.62L133.92 6.62Q134.43 6.62 134.80 6.74L134.80 6.74L134.80 6.74Q135.18 6.86 135.43 7.05L135.43 7.05L135.43 7.05Q135.68 7.24 135.80 7.49L135.80 7.49L135.80 7.49Q135.93 7.74 135.93 8.00L135.93 8.00L135.93 8.00Q135.93 8.20 135.87 8.38L135.87 8.38L135.87 8.38Q135.82 8.57 135.72 8.70L135.72 8.70L135.72 8.70Q135.63 8.83 135.47 8.91L135.47 8.91L135.47 8.91Q135.32 8.99 135.13 8.99ZM140.54 7.21L139.48 7.21L139.48 12.26L139.48 12.26Q139.48 12.63 139.62 12.77L139.62 12.77L139.62 12.77Q139.75 12.91 139.99 12.91L139.99 12.91L139.99 12.91Q140.18 12.91 140.32 12.80L140.32 12.80L140.32 12.80Q140.46 12.70 140.57 12.57L140.57 12.57L140.57 12.57Q140.69 12.43 140.78 12.24L140.78 12.24L140.99 12.33L140.99 12.33Q140.89 12.55 140.75 12.81L140.75 12.81L140.75 12.81Q140.61 13.07 140.38 13.29L140.38 13.29L140.38 13.29Q140.14 13.51 139.79 13.67L139.79 13.67L139.79 13.67Q139.44 13.82 138.91 13.82L138.91 13.82L138.91 13.82Q138.61 13.82 138.33 13.73L138.33 13.73L138.33 13.73Q138.05 13.64 137.84 13.45L137.84 13.45L137.84 13.45Q137.62 13.25 137.49 12.97L137.49 12.97L137.49 12.97Q137.36 12.68 137.36 12.28L137.36 12.28L137.36 7.21L136.60 7.21L136.60 6.72L136.60 6.72Q136.79 6.72 137.13 6.62L137.13 6.62L137.13 6.62Q137.47 6.52 137.83 6.29L137.83 6.29L137.83 6.29Q138.19 6.06 138.50 5.67L138.50 5.67L138.50 5.67Q138.80 5.28 138.93 4.70L138.93 4.70L139.48 4.70L139.48 6.72L140.59 6.72L140.59 6.72Q141.14 6.72 141.14 6.54L141.14 6.54L141.14 6.54Q141.14 6.47 141.07 6.44L141.07 6.44L141.07 6.44Q141.00 6.42 140.92 6.38L140.92 6.38L140.92 6.38Q140.83 6.34 140.77 6.28L140.77 6.28L140.77 6.28Q140.70 6.21 140.70 6.05L140.70 6.05L140.70 6.05Q140.70 5.86 140.82 5.75L140.82 5.75L140.82 5.75Q140.94 5.64 141.13 5.64L141.13 5.64L141.13 5.64Q141.25 5.64 141.34 5.69L141.34 5.69L141.34 5.69Q141.44 5.74 141.50 5.83L141.50 5.83L141.50 5.83Q141.56 5.91 141.59 6.02L141.59 6.02L141.59 6.02Q141.62 6.13 141.62 6.24L141.62 6.24L141.62 6.24Q141.62 6.69 141.36 6.95L141.36 6.95L141.36 6.95Q141.11 7.21 140.54 7.21L140.54 7.21Z"></path></g><!----><g data-v-423bf9ae="" id="d8b6e544-9c87-4027-b2e1-f9eb21b78634" transform="matrix(1.805487181233554,0,0,1.805487181233554,215.03575211894133,-45.259610853837856)" stroke="none" fill="black"><path d="M81.75 36.53c-.32-.26-32.57-25.47-64.4 0a2 2 0 1 0 2.5 3.12c8.52-6.81 17-9.74 24.78-10.45L33 40.32V38a2 2 0 0 0-4 0v6.14l-3.73 3.56A2 2 0 1 0 28 50.6l1-.92V71h-5a2 2 0 0 0 0 4h46a2 2 0 0 0 0-4H33V45.85l17.55-16.78c16.05.73 27.93 10 28.7 10.59a2 2 0 1 0 2.5-3.12zM80 71h-4a2 2 0 0 0 0 4h4a2 2 0 0 0 0-4zM19.85 72.23a1.62 1.62 0 0 0-.19-.34 1.46 1.46 0 0 0-.25-.3 2.06 2.06 0 0 0-2.83 0A2 2 0 0 0 16 73a2 2 0 0 0 .15.77A2 2 0 0 0 18 75a1.94 1.94 0 0 0 .76-.15 1.83 1.83 0 0 0 .65-.44A2 2 0 0 0 20 73a1.72 1.72 0 0 0 0-.39 1.7 1.7 0 0 0-.15-.38z"></path></g><!----><g data-v-423bf9ae="" id="8779050c-7577-4e12-9e16-ccc0cd8e5927" fill="black" transform="matrix(2.430337210150307,0,0,2.430337210150307,73.48190557736527,185.28080149617293)"><path d="M10.93 7.46L10.93 7.46L10.93 7.46Q10.93 8.13 10.63 8.73L10.63 8.73L10.63 8.73Q10.33 9.32 9.80 9.79L9.80 9.79L9.80 9.79Q9.27 10.26 8.55 10.58L8.55 10.58L8.55 10.58Q7.84 10.91 7 11.02L7 11.02L7 11.02Q7.21 11.65 7.51 12.31L7.51 12.31L7.51 12.31Q7.81 12.98 8.16 13.59L8.16 13.59L8.16 13.59Q8.51 14.21 8.89 14.73L8.89 14.73L8.89 14.73Q9.27 15.25 9.63 15.58L9.63 15.58L9.63 15.58Q9.56 15.72 9.43 15.86L9.43 15.86L9.43 15.86Q9.30 16.00 9.12 16.12L9.12 16.12L9.12 16.12Q8.95 16.24 8.76 16.32L8.76 16.32L8.76 16.32Q8.57 16.39 8.40 16.39L8.40 16.39L8.40 16.39Q8.09 16.39 7.81 16.10L7.81 16.10L7.81 16.10Q7.53 15.81 7.25 15.17L7.25 15.17L7.25 15.17Q6.96 14.53 6.64 13.52L6.64 13.52L6.64 13.52Q6.33 12.50 5.95 11.07L5.95 11.07L5.95 11.07Q5.80 11.07 5.64 11.07L5.64 11.07L5.64 11.07Q5.49 11.07 5.40 11.05L5.40 11.05L5.40 11.05Q5.31 10.99 5.19 10.85L5.19 10.85L5.19 10.85Q4.82 11.66 4.52 12.38L4.52 12.38L4.52 12.38Q4.23 13.09 4.00 13.76L4.00 13.76L4.00 13.76Q3.77 14.42 3.59 15.04L3.59 15.04L3.59 15.04Q3.42 15.67 3.29 16.31L3.29 16.31L3.29 16.31Q2.81 16.20 2.46 15.90L2.46 15.90L2.46 15.90Q2.11 15.61 1.81 15.08L1.81 15.08L1.81 15.08Q1.86 14.95 1.93 14.83L1.93 14.83L1.93 14.83Q1.99 14.71 2.09 14.50L2.09 14.50L2.09 14.50Q2.18 14.28 2.33 13.94L2.33 13.94L2.33 13.94Q2.48 13.61 2.72 13.05L2.72 13.05L2.72 13.05Q2.97 12.49 3.31 11.68L3.31 11.68L3.31 11.68Q3.65 10.86 4.14 9.70L4.14 9.70L4.14 9.70Q4.37 9.18 4.53 8.79L4.53 8.79L4.53 8.79Q4.69 8.40 4.82 8.04L4.82 8.04L4.82 8.04Q4.94 7.69 5.05 7.33L5.05 7.33L5.05 7.33Q5.15 6.97 5.26 6.51L5.26 6.51L5.26 6.51Q4.62 6.73 4.07 7.01L4.07 7.01L4.07 7.01Q3.51 7.28 3.15 7.59L3.15 7.59L3.15 7.59Q3.02 7.50 2.89 7.34L2.89 7.34L2.89 7.34Q2.76 7.17 2.65 6.96L2.65 6.96L2.65 6.96Q2.53 6.76 2.45 6.55L2.45 6.55L2.45 6.55Q2.37 6.34 2.35 6.17L2.35 6.17L2.35 6.17Q2.77 5.89 3.38 5.66L3.38 5.66L3.38 5.66Q3.99 5.42 4.68 5.24L4.68 5.24L4.68 5.24Q5.36 5.07 6.08 4.97L6.08 4.97L6.08 4.97Q6.79 4.87 7.41 4.87L7.41 4.87L7.41 4.87Q9.09 4.87 10.01 5.56L10.01 5.56L10.01 5.56Q10.93 6.26 10.93 7.46ZM7.35 6.02L7.52 6.29L7.52 6.29Q7.42 6.41 7.21 6.79L7.21 6.79L7.21 6.79Q7 7.17 6.73 7.69L6.73 7.69L6.73 7.69Q6.45 8.22 6.15 8.83L6.15 8.83L6.15 8.83Q5.85 9.45 5.57 10.05L5.57 10.05L5.57 10.05Q6.62 10.05 7.50 9.86L7.50 9.86L7.50 9.86Q8.39 9.66 9.03 9.30L9.03 9.30L9.03 9.30Q9.67 8.95 10.03 8.46L10.03 8.46L10.03 8.46Q10.39 7.98 10.39 7.39L10.39 7.39L10.39 7.39Q10.39 6.69 9.88 6.32L9.88 6.32L9.88 6.32Q9.38 5.95 8.33 5.95L8.33 5.95L8.33 5.95Q8.09 5.95 7.85 5.97L7.85 5.97L7.85 5.97Q7.62 5.99 7.35 6.02L7.35 6.02ZM23.76 9.21L23.76 9.21L23.76 9.21Q24.22 9.21 24.48 9.46L24.48 9.46L24.48 9.46Q24.74 9.72 24.74 10.16L24.74 10.16L24.74 10.16Q24.74 10.28 24.72 10.39L24.72 10.39L24.72 10.39Q24.70 10.51 24.67 10.60L24.67 10.60L24.67 10.60Q24.49 10.57 24.26 10.55L24.26 10.55L24.26 10.55Q24.04 10.53 23.73 10.53L23.73 10.53L23.73 10.53Q23.13 10.53 22.51 10.63L22.51 10.63L22.51 10.63Q21.90 10.74 21.34 10.81L21.34 10.81L21.34 10.81Q21.01 11.55 20.75 12.24L20.75 12.24L20.75 12.24Q20.48 12.94 20.29 13.51L20.29 13.51L20.29 13.51Q20.10 14.08 20.00 14.50L20.00 14.50L20.00 14.50Q19.89 14.92 19.88 15.13L19.88 15.13L19.88 15.13Q21.01 14.90 22.17 14.73L22.17 14.73L22.17 14.73Q23.32 14.56 24.60 14.48L24.60 14.48L24.60 14.48Q24.75 14.71 24.86 14.99L24.86 14.99L24.86 14.99Q24.96 15.27 24.96 15.60L24.96 15.60L24.96 15.60Q24.96 15.68 24.96 15.78L24.96 15.78L24.96 15.78Q24.96 15.88 24.93 15.97L24.93 15.97L24.93 15.97Q24.54 15.96 24.11 15.95L24.11 15.95L24.11 15.95Q23.67 15.95 22.97 15.95L22.97 15.95L22.97 15.95Q22.51 15.95 22.10 15.97L22.10 15.97L22.10 15.97Q21.69 15.99 21.27 16.03L21.27 16.03L21.27 16.03Q20.85 16.07 20.38 16.14L20.38 16.14L20.38 16.14Q19.91 16.21 19.32 16.31L19.32 16.31L19.32 16.31Q18.68 16.06 18.07 15.08L18.07 15.08L18.07 15.08Q18.31 14.57 18.74 13.54L18.74 13.54L18.74 13.54Q19.17 12.52 19.82 10.79L19.82 10.79L19.82 10.79Q19.19 10.60 19.00 10.09L19.00 10.09L19.00 10.09Q19.07 10.02 19.40 9.92L19.40 9.92L19.40 9.92Q19.74 9.81 20.23 9.70L20.23 9.70L20.23 9.70Q20.44 9.16 20.59 8.75L20.59 8.75L20.59 8.75Q20.73 8.34 20.85 7.99L20.85 7.99L20.85 7.99Q20.96 7.63 21.05 7.29L21.05 7.29L21.05 7.29Q21.14 6.94 21.22 6.54L21.22 6.54L21.22 6.54Q20.73 6.51 20.45 6.27L20.45 6.27L20.45 6.27Q20.17 6.02 20.17 5.63L20.17 5.63L20.17 5.63Q20.17 5.52 20.21 5.36L20.21 5.36L20.21 5.36Q20.24 5.21 20.29 5.10L20.29 5.10L20.29 5.10Q20.57 5.14 20.82 5.15L20.82 5.15L20.82 5.15Q21.08 5.17 21.50 5.17L21.50 5.17L21.50 5.17Q22.39 5.17 23.16 5.12L23.16 5.12L23.16 5.12Q23.93 5.07 24.55 5.01L24.55 5.01L24.55 5.01Q25.17 4.96 25.62 4.91L25.62 4.91L25.62 4.91Q26.07 4.86 26.31 4.86L26.31 4.86L26.31 4.86Q26.63 4.86 26.88 5.19L26.88 5.19L26.88 5.19Q27.13 5.53 27.26 6.15L27.26 6.15L27.26 6.15Q26.82 6.10 26.55 6.09L26.55 6.09L26.55 6.09Q26.28 6.08 26.07 6.08L26.07 6.08L26.07 6.08Q25.30 6.08 24.66 6.15L24.66 6.15L24.66 6.15Q24.02 6.23 23.44 6.31L23.44 6.31L23.44 6.31Q23.35 6.44 23.25 6.64L23.25 6.64L23.25 6.64Q23.14 6.83 22.97 7.18L22.97 7.18L22.97 7.18Q22.81 7.53 22.56 8.06L22.56 8.06L22.56 8.06Q22.32 8.60 21.97 9.39L21.97 9.39L21.97 9.39Q22.50 9.31 22.97 9.26L22.97 9.26L22.97 9.26Q23.44 9.21 23.76 9.21ZM38.71 14.38L38.71 14.38L38.71 14.38Q39.06 14.98 39.06 15.54L39.06 15.54L39.06 15.54Q39.06 15.67 39.04 15.77L39.04 15.77L39.04 15.77Q39.02 15.88 38.99 15.99L38.99 15.99L38.99 15.99Q38.75 15.96 38.49 15.95L38.49 15.95L38.49 15.95Q38.23 15.93 37.95 15.93L37.95 15.93L37.95 15.93Q37.62 15.93 37.27 15.95L37.27 15.95L37.27 15.95Q36.93 15.97 36.51 16.02L36.51 16.02L36.51 16.02Q36.09 16.06 35.57 16.13L35.57 16.13L35.57 16.13Q35.06 16.20 34.37 16.31L34.37 16.31L34.37 16.31Q34.05 16.20 33.73 15.87L33.73 15.87L33.73 15.87Q33.40 15.54 33.12 15.08L33.12 15.08L33.12 15.08Q33.26 14.77 33.47 14.31L33.47 14.31L33.47 14.31Q33.68 13.86 33.96 13.21L33.96 13.21L33.96 13.21Q34.24 12.56 34.59 11.68L34.59 11.68L34.59 11.68Q34.93 10.81 35.32 9.66L35.32 9.66L35.32 9.66Q35.57 8.90 35.76 8.33L35.76 8.33L35.76 8.33Q35.94 7.76 36.08 7.22L36.08 7.22L36.08 7.22Q36.23 6.68 36.37 6.09L36.37 6.09L36.37 6.09Q36.51 5.50 36.68 4.73L36.68 4.73L36.68 4.73Q37.24 4.84 37.65 5.14L37.65 5.14L37.65 5.14Q38.07 5.45 38.44 6.01L38.44 6.01L38.44 6.01Q38.33 6.19 38.15 6.59L38.15 6.59L38.15 6.59Q37.97 7 37.72 7.58L37.72 7.58L37.72 7.58Q37.48 8.16 37.18 8.90L37.18 8.90L37.18 8.90Q36.89 9.63 36.57 10.47L36.57 10.47L36.57 10.47Q36.26 11.30 35.97 12.03L35.97 12.03L35.97 12.03Q35.67 12.75 35.44 13.34L35.44 13.34L35.44 13.34Q35.21 13.93 35.07 14.35L35.07 14.35L35.07 14.35Q34.93 14.77 34.93 14.98L34.93 14.98L34.93 14.98Q35.15 14.97 35.34 14.95L35.34 14.95L35.34 14.95Q35.52 14.94 35.71 14.90L35.71 14.90L35.71 14.90Q35.91 14.87 36.14 14.82L36.14 14.82L36.14 14.82Q36.37 14.77 36.69 14.69L36.69 14.69L36.69 14.69Q36.97 14.62 37.21 14.57L37.21 14.57L37.21 14.57Q37.45 14.52 37.68 14.48L37.68 14.48L37.68 14.48Q37.91 14.45 38.16 14.43L38.16 14.43L38.16 14.43Q38.40 14.41 38.71 14.38ZM48.13 16.24L48.13 16.24L48.13 16.24Q47.46 16.04 47.20 15.85L47.20 15.85L47.20 15.85Q46.94 15.65 46.94 15.36L46.94 15.36L46.94 15.36Q46.94 15.13 47.07 14.73L47.07 14.73L47.07 14.73Q47.19 14.32 47.44 13.77L47.44 13.77L47.44 13.77Q47.68 13.22 48.03 12.54L48.03 12.54L48.03 12.54Q48.37 11.87 48.80 11.10L48.80 11.10L48.80 11.10Q48.44 11.09 48.15 11.08L48.15 11.08L48.15 11.08Q47.87 11.07 47.68 11.07L47.68 11.07L47.68 11.07Q47.77 10.86 48.16 10.71L48.16 10.71L48.16 10.71Q48.55 10.56 49.20 10.44L49.20 10.44L49.20 10.44Q49.74 9.53 50.36 8.71L50.36 8.71L50.36 8.71Q50.99 7.88 51.62 7.19L51.62 7.19L51.62 7.19Q52.25 6.50 52.88 5.97L52.88 5.97L52.88 5.97Q53.51 5.45 54.08 5.14L54.08 5.14L54.08 5.14Q54.10 5.04 54.10 4.97L54.10 4.97L54.10 4.97Q54.11 4.90 54.11 4.87L54.11 4.87L54.11 4.87Q54.31 4.87 54.63 4.97L54.63 4.97L54.63 4.97Q54.96 5.07 55.28 5.21L55.28 5.21L55.28 5.21Q55.59 5.35 55.84 5.49L55.84 5.49L55.84 5.49Q56.08 5.64 56.11 5.74L56.11 5.74L56.11 5.74Q55.65 6.55 55.20 8.17L55.20 8.17L55.20 8.17Q54.75 9.79 54.46 12.04L54.46 12.04L54.46 12.04Q54.39 12.60 54.34 13.31L54.34 13.31L54.34 13.31Q54.29 14.03 54.29 14.91L54.29 14.91L54.29 14.91Q54.29 15.22 54.29 15.54L54.29 15.54L54.29 15.54Q54.29 15.86 54.32 16.21L54.32 16.21L54.32 16.21Q54.29 16.23 54.26 16.23L54.26 16.23L54.26 16.23Q54.24 16.23 54.15 16.23L54.15 16.23L54.15 16.23Q53.96 16.23 53.70 16.16L53.70 16.16L53.70 16.16Q53.44 16.10 53.19 16.01L53.19 16.01L53.19 16.01Q52.95 15.92 52.77 15.81L52.77 15.81L52.77 15.81Q52.60 15.69 52.56 15.61L52.56 15.61L52.56 15.61Q52.54 15.43 52.54 15.25L52.54 15.25L52.54 15.25Q52.54 15.08 52.54 14.88L52.54 14.88L52.54 14.88Q52.54 14.01 52.60 13.12L52.60 13.12L52.60 13.12Q52.67 12.22 52.82 11.27L52.82 11.27L52.82 11.27Q52.63 11.26 52.30 11.23L52.30 11.23L52.30 11.23Q51.98 11.21 51.58 11.20L51.58 11.20L51.58 11.20Q51.18 11.19 50.73 11.16L50.73 11.16L50.73 11.16Q50.27 11.14 49.84 11.13L49.84 11.13L49.84 11.13Q49.50 11.76 49.21 12.38L49.21 12.38L49.21 12.38Q48.92 13.01 48.71 13.64L48.71 13.64L48.71 13.64Q48.47 14.31 48.32 14.98L48.32 14.98L48.32 14.98Q48.17 15.65 48.13 16.24ZM53.54 7.83L53.54 7.83L53.54 7.83Q53.59 7.63 53.67 7.29L53.67 7.29L53.67 7.29Q53.75 6.94 53.82 6.57L53.82 6.57L53.82 6.57Q53.47 6.69 53.04 7.03L53.04 7.03L53.04 7.03Q52.61 7.36 52.16 7.86L52.16 7.86L52.16 7.86Q51.70 8.36 51.23 8.98L51.23 8.98L51.23 8.98Q50.76 9.60 50.33 10.30L50.33 10.30L50.33 10.30Q51.51 10.21 53.00 10.18L53.00 10.18L53.00 10.18Q53.12 9.59 53.25 9.01L53.25 9.01L53.25 9.01Q53.38 8.43 53.54 7.83ZM71.04 15.23L71.04 15.23L71.04 15.23Q70.91 15.36 70.66 15.52L70.66 15.52L70.66 15.52Q70.42 15.68 70.14 15.81L70.14 15.81L70.14 15.81Q69.86 15.95 69.57 16.05L69.57 16.05L69.57 16.05Q69.29 16.16 69.10 16.17L69.10 16.17L69.10 16.17Q68.92 16.17 68.78 16.03L68.78 16.03L68.78 16.03Q68.64 15.89 68.49 15.39L68.49 15.39L68.49 15.39Q68.33 14.90 68.13 13.95L68.13 13.95L68.13 13.95Q67.93 13.01 67.62 11.38L67.62 11.38L67.62 11.38Q66.82 12.21 66.14 12.98L66.14 12.98L66.14 12.98Q65.45 13.75 64.96 14.41L64.96 14.41L64.96 14.41Q64.47 15.06 64.19 15.55L64.19 15.55L64.19 15.55Q63.91 16.04 63.91 16.30L63.91 16.30L63.91 16.30Q63.74 16.28 63.57 16.17L63.57 16.17L63.57 16.17Q63.39 16.06 63.25 15.90L63.25 15.90L63.25 15.90Q63.11 15.75 63.02 15.57L63.02 15.57L63.02 15.57Q62.93 15.39 62.93 15.22L62.93 15.22L62.93 15.22Q62.97 15.06 63.14 14.78L63.14 14.78L63.14 14.78Q63.31 14.50 63.56 14.18L63.56 14.18L63.56 14.18Q64.09 13.50 65.08 12.59L65.08 12.59L65.08 12.59Q66.07 11.69 67.47 10.60L67.47 10.60L67.47 10.60Q66.56 6.08 64.89 6.08L64.89 6.08L64.89 6.08Q65.06 5.67 65.43 5.36L65.43 5.36L65.43 5.36Q65.80 5.05 66.22 4.98L66.22 4.98L66.22 4.98Q66.68 4.98 66.98 5.10L66.98 5.10L66.98 5.10Q67.27 5.22 67.51 5.70L67.51 5.70L67.51 5.70Q67.75 6.17 67.98 7.13L67.98 7.13L67.98 7.13Q68.22 8.09 68.59 9.76L68.59 9.76L68.59 9.76Q69.05 9.27 69.47 8.76L69.47 8.76L69.47 8.76Q69.90 8.25 70.27 7.77L70.27 7.77L70.27 7.77Q70.63 7.29 70.91 6.89L70.91 6.89L70.91 6.89Q71.19 6.48 71.34 6.19L71.34 6.19L71.34 6.19Q71.50 5.92 71.50 5.64L71.50 5.64L71.50 5.64Q71.50 5.39 71.34 4.98L71.34 4.98L71.34 4.98Q71.79 5.25 72.02 5.48L72.02 5.48L72.02 5.48Q72.25 5.71 72.42 6.12L72.42 6.12L72.42 6.12Q72.39 6.45 72.23 6.79L72.23 6.79L72.23 6.79Q72.07 7.13 71.67 7.59L71.67 7.59L71.67 7.59Q71.27 8.06 70.57 8.75L70.57 8.75L70.57 8.75Q69.87 9.44 68.74 10.46L68.74 10.46L68.74 10.46Q69.01 11.72 69.26 12.59L69.26 12.59L69.26 12.59Q69.51 13.45 69.78 14.01L69.78 14.01L69.78 14.01Q70.04 14.56 70.35 14.85L70.35 14.85L70.35 14.85Q70.66 15.13 71.04 15.23ZM91.43 15.61L91.43 15.61L91.43 15.61Q91.36 15.04 91.33 14.36L91.33 14.36L91.33 14.36Q91.29 13.68 91.29 13.09L91.29 13.09L91.29 13.09Q91.29 12.15 91.36 11.29L91.36 11.29L91.36 11.29Q91.42 10.43 91.51 9.48L91.51 9.48L91.51 9.48Q91.60 8.54 91.71 7.43L91.71 7.43L91.71 7.43Q91.83 6.31 91.91 4.86L91.91 4.86L91.91 4.86Q92.09 4.86 92.43 4.96L92.43 4.96L92.43 4.96Q92.78 5.07 93.13 5.21L93.13 5.21L93.13 5.21Q93.48 5.35 93.74 5.49L93.74 5.49L93.74 5.49Q94.01 5.64 94.05 5.74L94.05 5.74L94.05 5.74Q93.81 6.29 93.63 7.18L93.63 7.18L93.63 7.18Q93.44 8.06 93.31 9.11L93.31 9.11L93.31 9.11Q93.18 10.16 93.11 11.27L93.11 11.27L93.11 11.27Q93.04 12.38 93.04 13.34L93.04 13.34L93.04 13.34Q93.04 13.79 93.06 14.22L93.06 14.22L93.06 14.22Q93.07 14.66 93.10 15.02L93.10 15.02L93.10 15.02Q93.39 14.59 93.78 13.78L93.78 13.78L93.78 13.78Q94.16 12.98 94.58 11.98L94.58 11.98L94.58 11.98Q94.99 10.99 95.40 9.91L95.40 9.91L95.40 9.91Q95.82 8.82 96.17 7.83L96.17 7.83L96.17 7.83Q96.52 6.85 96.76 6.05L96.76 6.05L96.76 6.05Q97.01 5.26 97.10 4.86L97.10 4.86L97.10 4.86Q97.29 4.86 97.64 4.96L97.64 4.96L97.64 4.96Q98 5.07 98.34 5.21L98.34 5.21L98.34 5.21Q98.69 5.35 98.95 5.49L98.95 5.49L98.95 5.49Q99.22 5.64 99.25 5.74L99.25 5.74L99.25 5.74Q99.01 6.29 98.82 7.18L98.82 7.18L98.82 7.18Q98.63 8.06 98.50 9.11L98.50 9.11L98.50 9.11Q98.38 10.16 98.31 11.27L98.31 11.27L98.31 11.27Q98.24 12.38 98.24 13.34L98.24 13.34L98.24 13.34Q98.24 13.75 98.24 14.15L98.24 14.15L98.24 14.15Q98.25 14.55 98.28 14.87L98.28 14.87L98.28 14.87Q98.73 13.71 99.21 12.56L99.21 12.56L99.21 12.56Q99.69 11.42 100.17 10.38L100.17 10.38L100.17 10.38Q100.65 9.34 101.09 8.43L101.09 8.43L101.09 8.43Q101.54 7.53 101.92 6.82L101.92 6.82L101.92 6.82Q102.30 6.12 102.58 5.66L102.58 5.66L102.58 5.66Q102.86 5.19 103.01 5.04L103.01 5.04L103.01 5.04Q103.33 5.08 103.68 5.27L103.68 5.27L103.68 5.27Q104.02 5.46 104.29 5.75L104.29 5.75L104.29 5.75Q103.88 6.08 103.36 6.81L103.36 6.81L103.36 6.81Q102.84 7.55 102.30 8.51L102.30 8.51L102.30 8.51Q101.75 9.48 101.20 10.57L101.20 10.57L101.20 10.57Q100.65 11.66 100.17 12.70L100.17 12.70L100.17 12.70Q99.69 13.73 99.32 14.63L99.32 14.63L99.32 14.63Q98.95 15.53 98.76 16.07L98.76 16.07L98.76 16.07Q98.39 16.24 98.04 16.24L98.04 16.24L98.04 16.24Q97.59 16.18 97.19 16.02L97.19 16.02L97.19 16.02Q96.80 15.85 96.63 15.61L96.63 15.61L96.63 15.61Q96.59 15.39 96.56 15.09L96.56 15.09L96.56 15.09Q96.53 14.78 96.52 14.49L96.52 14.49L96.52 14.49Q96.50 14.20 96.49 13.92L96.49 13.92L96.49 13.92Q96.49 13.65 96.49 13.45L96.49 13.45L96.49 13.45Q96.49 12.21 96.59 10.91L96.59 10.91L96.59 10.91Q96.68 9.62 96.82 8.13L96.82 8.13L96.82 8.13Q96.50 9.09 96.11 10.18L96.11 10.18L96.11 10.18Q95.72 11.27 95.29 12.34L95.29 12.34L95.29 12.34Q94.86 13.41 94.42 14.38L94.42 14.38L94.42 14.38Q93.98 15.36 93.56 16.07L93.56 16.07L93.56 16.07Q93.20 16.24 92.85 16.24L92.85 16.24L92.85 16.24Q92.40 16.18 92.00 16.02L92.00 16.02L92.00 16.02Q91.60 15.85 91.43 15.61ZM110.40 14.38L110.40 14.38L110.40 14.38Q110.40 13.87 110.56 13.07L110.56 13.07L110.56 13.07Q110.73 12.26 110.98 11.33L110.98 11.33L110.98 11.33Q111.24 10.40 111.58 9.43L111.58 9.43L111.58 9.43Q111.92 8.46 112.27 7.60L112.27 7.60L112.27 7.60Q112.62 6.75 112.95 6.10L112.95 6.10L112.95 6.10Q113.29 5.46 113.55 5.18L113.55 5.18L113.55 5.18Q113.69 5.19 113.92 5.29L113.92 5.29L113.92 5.29Q114.16 5.38 114.39 5.50L114.39 5.50L114.39 5.50Q114.63 5.63 114.83 5.78L114.83 5.78L114.83 5.78Q115.02 5.92 115.08 6.05L115.08 6.05L115.08 6.05Q114.67 6.41 114.27 7.15L114.27 7.15L114.27 7.15Q113.88 7.88 113.50 8.82L113.50 8.82L113.50 8.82Q113.13 9.76 112.81 10.80L112.81 10.80L112.81 10.80Q112.49 11.84 112.25 12.82L112.25 12.82L112.25 12.82Q112.01 13.80 111.88 14.64L111.88 14.64L111.88 14.64Q111.75 15.48 111.75 16.00L111.75 16.00L111.75 16.00Q111.75 16.24 111.79 16.30L111.79 16.30L111.79 16.30Q111.48 16.28 111.34 16.19L111.34 16.19L111.34 16.19Q111.20 16.10 111.13 16.00L111.13 16.00L111.13 16.00Q111.05 15.89 110.98 15.79L110.98 15.79L110.98 15.79Q110.92 15.68 110.80 15.62L110.80 15.62L110.80 15.62Q110.70 15.58 110.63 15.43L110.63 15.43L110.63 15.43Q110.56 15.27 110.51 15.09L110.51 15.09L110.51 15.09Q110.46 14.90 110.43 14.70L110.43 14.70L110.43 14.70Q110.40 14.50 110.40 14.38ZM124.17 6.69L124.17 6.69L124.17 6.69Q123.61 6.69 123.30 6.38L123.30 6.38L123.30 6.38Q123.00 6.06 123.00 5.61L123.00 5.61L123.00 5.61Q123.00 5.50 123.04 5.35L123.04 5.35L123.04 5.35Q123.07 5.19 123.13 5.08L123.13 5.08L123.13 5.08Q123.31 5.17 123.67 5.20L123.67 5.20L123.67 5.20Q124.03 5.24 124.50 5.24L124.50 5.24L124.50 5.24Q125.22 5.24 126.12 5.17L126.12 5.17L126.12 5.17Q127.02 5.11 127.85 5.04L127.85 5.04L127.85 5.04Q128.67 4.97 129.30 4.91L129.30 4.91L129.30 4.91Q129.93 4.84 130.12 4.84L130.12 4.84L130.12 4.84Q130.63 4.84 130.86 5.23L130.86 5.23L130.86 5.23Q131.10 5.61 131.21 6.26L131.21 6.26L131.21 6.26Q130.84 6.23 130.49 6.21L130.49 6.21L130.49 6.21Q130.13 6.19 129.88 6.19L129.88 6.19L129.88 6.19Q129.43 6.19 128.97 6.22L128.97 6.22L128.97 6.22Q128.52 6.24 128.06 6.30L128.06 6.30L128.06 6.30Q127.86 6.71 127.62 7.26L127.62 7.26L127.62 7.26Q127.39 7.81 127.15 8.41L127.15 8.41L127.15 8.41Q126.92 9.02 126.71 9.61L126.71 9.61L126.71 9.61Q126.50 10.21 126.35 10.68L126.35 10.68L126.35 10.68Q126.04 11.61 125.81 12.39L125.81 12.39L125.81 12.39Q125.58 13.17 125.40 13.85L125.40 13.85L125.40 13.85Q125.23 14.53 125.10 15.15L125.10 15.15L125.10 15.15Q124.98 15.76 124.88 16.35L124.88 16.35L124.88 16.35Q123.94 16.21 123.31 15.18L123.31 15.18L123.31 15.18Q123.42 14.74 123.58 14.23L123.58 14.23L123.58 14.23Q123.75 13.72 123.96 13.07L123.96 13.07L123.96 13.07Q124.18 12.42 124.47 11.59L124.47 11.59L124.47 11.59Q124.77 10.77 125.15 9.72L125.15 9.72L125.15 9.72Q125.29 9.32 125.44 8.90L125.44 8.90L125.44 8.90Q125.59 8.47 125.74 8.05L125.74 8.05L125.74 8.05Q125.89 7.63 126.01 7.24L126.01 7.24L126.01 7.24Q126.13 6.85 126.21 6.52L126.21 6.52L126.21 6.52Q125.62 6.59 125.10 6.64L125.10 6.64L125.10 6.64Q124.57 6.69 124.17 6.69ZM142.09 14.36L142.09 14.36L142.09 14.36Q142.09 13.78 142.28 12.85L142.28 12.85L142.28 12.85Q142.48 11.93 142.80 10.88L142.80 10.88L142.80 10.88Q141.88 10.95 140.94 11.06L140.94 11.06L140.94 11.06Q140.01 11.17 139.33 11.19L139.33 11.19L139.33 11.19Q138.70 12.66 138.33 13.89L138.33 13.89L138.33 13.89Q137.96 15.13 137.75 16.31L137.75 16.31L137.75 16.31Q137.21 16.18 136.86 15.87L136.86 15.87L136.86 15.87Q136.51 15.55 136.22 15.08L136.22 15.08L136.22 15.08Q136.33 14.85 136.48 14.50L136.48 14.50L136.48 14.50Q136.63 14.15 136.83 13.66L136.83 13.66L136.83 13.66Q137.03 13.16 137.29 12.50L137.29 12.50L137.29 12.50Q137.55 11.83 137.89 10.95L137.89 10.95L137.89 10.95Q137.42 10.75 137.27 10.40L137.27 10.40L137.27 10.40Q137.34 10.35 137.58 10.28L137.58 10.28L137.58 10.28Q137.83 10.22 138.19 10.15L138.19 10.15L138.38 9.70L138.38 9.70Q138.67 8.95 138.86 8.43L138.86 8.43L138.86 8.43Q139.05 7.91 139.18 7.41L139.18 7.41L139.18 7.41Q139.31 6.92 139.43 6.31L139.43 6.31L139.43 6.31Q139.55 5.71 139.72 4.79L139.72 4.79L139.72 4.79Q140.31 4.90 140.79 5.31L140.79 5.31L140.79 5.31Q141.27 5.71 141.62 6.29L141.62 6.29L141.62 6.29Q141.50 6.45 141.32 6.79L141.32 6.79L141.32 6.79Q141.13 7.13 140.92 7.59L140.92 7.59L140.92 7.59Q140.70 8.06 140.45 8.64L140.45 8.64L140.45 8.64Q140.20 9.23 139.90 9.87L139.90 9.87L139.90 9.87Q140.77 9.76 141.66 9.66L141.66 9.66L141.66 9.66Q142.55 9.56 143.23 9.52L143.23 9.52L143.23 9.52Q143.49 8.79 143.76 8.10L143.76 8.10L143.76 8.10Q144.03 7.41 144.30 6.83L144.30 6.83L144.30 6.83Q144.56 6.26 144.81 5.82L144.81 5.82L144.81 5.82Q145.05 5.39 145.25 5.18L145.25 5.18L145.25 5.18Q145.39 5.19 145.62 5.29L145.62 5.29L145.62 5.29Q145.85 5.38 146.09 5.50L146.09 5.50L146.09 5.50Q146.33 5.63 146.52 5.78L146.52 5.78L146.52 5.78Q146.72 5.92 146.79 6.05L146.79 6.05L146.79 6.05Q146.54 6.29 146.29 6.66L146.29 6.66L146.29 6.66Q146.03 7.04 145.79 7.53L145.79 7.53L145.79 7.53Q145.54 8.02 145.31 8.60L145.31 8.60L145.31 8.60Q145.07 9.17 144.86 9.79L144.86 9.79L144.86 9.79Q145.14 10.04 145.14 10.42L145.14 10.42L145.14 10.42Q145.14 10.68 145.03 10.91L145.03 10.91L145.03 10.91Q144.90 10.88 144.77 10.87L144.77 10.87L144.77 10.87Q144.65 10.86 144.51 10.85L144.51 10.85L144.51 10.85Q144.27 11.61 144.07 12.35L144.07 12.35L144.07 12.35Q143.88 13.09 143.74 13.76L143.74 13.76L143.74 13.76Q143.61 14.43 143.53 14.99L143.53 14.99L143.53 14.99Q143.46 15.55 143.46 15.93L143.46 15.93L143.46 15.93Q143.46 16.07 143.46 16.16L143.46 16.16L143.46 16.16Q143.47 16.24 143.49 16.30L143.49 16.30L143.49 16.30Q143.18 16.28 143.04 16.19L143.04 16.19L143.04 16.19Q142.90 16.10 142.83 16.00L142.83 16.00L142.83 16.00Q142.76 15.89 142.70 15.79L142.70 15.79L142.70 15.79Q142.65 15.68 142.52 15.62L142.52 15.62L142.52 15.62Q142.42 15.58 142.34 15.43L142.34 15.43L142.34 15.43Q142.25 15.27 142.20 15.08L142.20 15.08L142.20 15.08Q142.14 14.88 142.11 14.69L142.11 14.69L142.11 14.69Q142.09 14.49 142.09 14.36ZM168.78 5.75L168.78 5.75L168.78 5.75Q168.17 6.58 167.66 7.57L167.66 7.57L167.66 7.57Q167.16 8.57 166.80 9.61L166.80 9.61L166.80 9.61Q166.45 10.65 166.26 11.67L166.26 11.67L166.26 11.67Q166.07 12.68 166.07 13.57L166.07 13.57L166.07 13.57Q166.07 14.66 166.39 15.15L166.39 15.15L166.39 15.15Q166.71 15.64 167.50 15.64L167.50 15.64L167.50 15.64Q168.41 15.64 169.09 15.00L169.09 15.00L169.09 15.00Q169.78 14.36 170.38 13.24L170.38 13.24L170.38 13.24Q170.77 12.52 171.05 11.65L171.05 11.65L171.05 11.65Q171.33 10.78 171.51 9.86L171.51 9.86L171.51 9.86Q171.68 8.95 171.77 8.02L171.77 8.02L171.77 8.02Q171.85 7.08 171.85 6.23L171.85 6.23L171.85 6.23Q171.85 5.68 171.84 5.43L171.84 5.43L171.84 5.43Q171.82 5.18 171.79 5.03L171.79 5.03L171.79 5.03Q171.84 5.03 172.00 5.05L172.00 5.05L172.00 5.05Q172.17 5.08 172.39 5.12L172.39 5.12L172.39 5.12Q172.61 5.17 172.82 5.24L172.82 5.24L172.82 5.24Q173.04 5.31 173.19 5.39L173.19 5.39L173.19 5.39Q173.12 6.45 172.93 7.59L172.93 7.59L172.93 7.59Q172.75 8.72 172.44 9.83L172.44 9.83L172.44 9.83Q172.13 10.93 171.72 11.96L171.72 11.96L171.72 11.96Q171.32 12.98 170.81 13.79L170.81 13.79L170.81 13.79Q170.07 14.99 169.15 15.67L169.15 15.67L169.15 15.67Q168.22 16.35 166.96 16.35L166.96 16.35L166.96 16.35Q165.68 16.35 164.96 15.60L164.96 15.60L164.96 15.60Q164.25 14.85 164.25 13.33L164.25 13.33L164.25 13.33Q164.25 12.45 164.44 11.33L164.44 11.33L164.44 11.33Q164.64 10.22 164.97 9.07L164.97 9.07L164.97 9.07Q165.30 7.91 165.73 6.81L165.73 6.81L165.73 6.81Q166.17 5.71 166.64 4.84L166.64 4.84L166.64 4.84Q166.88 4.86 167.20 4.94L167.20 4.94L167.20 4.94Q167.52 5.03 167.83 5.16L167.83 5.16L167.83 5.16Q168.14 5.29 168.40 5.45L168.40 5.45L168.40 5.45Q168.66 5.61 168.78 5.75ZM189.29 5.74L189.29 5.74L189.29 5.74Q189.34 5.98 189.36 6.07L189.36 6.07L189.36 6.07Q189.38 6.16 189.38 6.31L189.38 6.31L189.38 6.31Q189.38 6.78 189.17 7.18L189.17 7.18L189.17 7.18Q188.97 7.57 188.62 7.74L188.62 7.74L188.62 7.74Q188.34 7.36 187.94 7.09L187.94 7.09L187.94 7.09Q187.53 6.82 187.05 6.64L187.05 6.64L187.05 6.64Q186.56 6.47 186.05 6.38L186.05 6.38L186.05 6.38Q185.53 6.30 185.04 6.30L185.04 6.30L185.04 6.30Q184.55 6.30 184.12 6.38L184.12 6.38L184.12 6.38Q183.69 6.45 183.36 6.59L183.36 6.59L183.36 6.59Q183.04 6.72 182.85 6.92L182.85 6.92L182.85 6.92Q182.66 7.11 182.66 7.36L182.66 7.36L182.66 7.36Q182.70 7.67 183.04 7.99L183.04 7.99L183.04 7.99Q183.37 8.30 183.86 8.60L183.86 8.60L183.86 8.60Q184.35 8.90 184.95 9.20L184.95 9.20L184.95 9.20Q185.54 9.49 186.12 9.76L186.12 9.76L186.12 9.76Q186.83 10.09 187.35 10.38L187.35 10.38L187.35 10.38Q187.87 10.67 188.20 11.01L188.20 11.01L188.20 11.01Q188.54 11.35 188.71 11.79L188.71 11.79L188.71 11.79Q188.87 12.22 188.87 12.84L188.87 12.84L188.87 12.84Q188.87 13.55 188.64 14.18L188.64 14.18L188.64 14.18Q188.40 14.80 187.94 15.26L187.94 15.26L187.94 15.26Q187.49 15.72 186.84 15.98L186.84 15.98L186.84 15.98Q186.20 16.24 185.40 16.24L185.40 16.24L185.40 16.24Q184.62 16.24 183.71 16.00L183.71 16.00L183.71 16.00Q182.80 15.76 182.01 15.35L182.01 15.35L182.01 15.35Q181.22 14.94 180.69 14.40L180.69 14.40L180.69 14.40Q180.17 13.86 180.17 13.26L180.17 13.26L180.17 13.26Q180.17 12.98 180.33 12.54L180.33 12.54L180.33 12.54Q180.49 12.11 180.91 11.63L180.91 11.63L180.91 11.63Q180.95 12.05 181.36 12.63L181.36 12.63L181.36 12.63Q181.78 13.20 182.60 13.69L182.60 13.69L182.60 13.69Q183.37 14.14 184.19 14.34L184.19 14.34L184.19 14.34Q185.01 14.55 185.72 14.55L185.72 14.55L185.72 14.55Q186.51 14.55 187.00 14.35L187.00 14.35L187.00 14.35Q187.49 14.15 187.77 13.88L187.77 13.88L187.77 13.88Q188.05 13.61 188.16 13.33L188.16 13.33L188.16 13.33Q188.27 13.05 188.29 12.88L188.29 12.88L188.29 12.88Q188.27 12.60 188.03 12.34L188.03 12.34L188.03 12.34Q187.78 12.08 187.37 11.84L187.37 11.84L187.37 11.84Q186.96 11.59 186.41 11.34L186.41 11.34L186.41 11.34Q185.86 11.09 185.28 10.84L185.28 10.84L185.28 10.84Q184.39 10.44 183.76 10.10L183.76 10.10L183.76 10.10Q183.12 9.76 182.71 9.40L182.71 9.40L182.71 9.40Q182.29 9.04 182.10 8.65L182.10 8.65L182.10 8.65Q181.92 8.26 181.92 7.76L181.92 7.76L181.92 7.76Q181.92 6.97 182.39 6.27L182.39 6.27L182.39 6.27Q182.87 5.57 183.76 5.21L183.76 5.21L183.76 5.21Q184.21 5.01 184.72 4.93L184.72 4.93L184.72 4.93Q185.23 4.84 185.72 4.84L185.72 4.84L185.72 4.84Q186.65 4.84 187.53 5.10L187.53 5.10L187.53 5.10Q188.41 5.35 189.29 5.74Z"></path></g></svg>